<?xml version="1.0" encoding="utf-8"?>
<!-- Generator: Adobe Illustrator 24.1.1, SVG Export Plug-In . SVG Version: 6.00 Build 0)  -->
<svg version="1.1" xmlns="http://www.w3.org/2000/svg" xmlns:xlink="http://www.w3.org/1999/xlink" x="0px" y="0px"
	 viewBox="0 0 841.89 595.28" style="enable-background:new 0 0 841.89 595.28;" xml:space="preserve">
<style type="text/css">
	.st0{fill:#FBECC0;}
	.st1{fill:#F0B861;}
	.st2{fill:#DE6526;}
	.st3{fill:#8F5546;}
	.st4{fill:#EA5A11;}
	.st5{fill:#73291B;}
	.st6{fill:#E29C3E;}
	.st7{fill:#9D7161;}
	.st8{fill:#C1251F;}
	.st9{fill:#DBDCDC;}
	.st10{fill:#FDF8D5;}
</style>
<g id="Background">
	<rect y="91.55" class="st0" width="841.89" height="412.18"/>
</g>
<g id="Ground">
	<g>
		<path class="st1" d="M841.89,419.04c-46.7,3.91-211.16,6.84-294.41,8.09c-88.26,1.33-200.43-7.68-304.81-12.17
			c-41.14-1.77-94.89-2.65-132.94-1.77c-39.66,0.92-69.24,2.73-109.73,5.84v84.69h841.89V419.04z"/>
		<path class="st2" d="M357.36,503.73c44.79-8.63,108.75-16.86,155.28-22.56c93.79-11.5,161.58-16.7,238.56-21.12
			c23.95-1.14,69.84-2.48,90.69-2.67v46.36H357.36z"/>
		<path class="st2" d="M282.6,503.73c-48.24-15.55-84.5-26.88-140.68-36.39c-24.45-4.14-50.52-7.6-77.88-8.88
			c-20.07-0.94-41.24-1.3-64.04-1.09v46.36H282.6z"/>
	</g>
</g>
<g id="Trees__x26__Grass">
	<g>
		<path class="st3" d="M420.73,456.04v-14.45h-4.06v14.45C417.82,456.22,419.69,456.2,420.73,456.04z"/>
		<path class="st4" d="M417.08,392.66c5.23-0.17,7.13,5.06,6.55,9.37c5.39,0.91,8.54,8.05,5.81,12.94c4.56,1.58,5.89,9.95,2.9,13.02
			c3.73,3.4,3.25,8.81,0.58,11.7c-2.99,3.24-7.05,4.65-11.2,2.9c-3.57,2.32-10.12,2.57-13.94,0.25c-6.06,0.58-10.26-7.09-6.14-12.03
			c-3.48-4.98-0.58-11.12,3.4-12.44c-3.48-6.22,1.24-13.44,5.64-14.02C408.29,399.22,411.51,392.84,417.08,392.66z"/>
	</g>
	<g>
		<path class="st3" d="M257.24,424.29v-14.45h-4.06v14.45C254.32,424.46,256.2,424.45,257.24,424.29z"/>
		<path class="st4" d="M253.59,360.91c5.23-0.17,7.13,5.06,6.55,9.37c5.39,0.91,8.54,8.05,5.81,12.94c4.56,1.58,5.89,9.95,2.9,13.02
			c3.73,3.4,3.25,8.81,0.58,11.7c-2.99,3.23-7.05,4.65-11.2,2.9c-3.57,2.32-10.12,2.57-13.94,0.25c-6.06,0.58-10.26-7.09-6.14-12.03
			c-3.48-4.98-0.58-11.12,3.4-12.44c-3.48-6.22,1.24-13.44,5.64-14.02C244.79,367.46,248.02,361.09,253.59,360.91z"/>
	</g>
	<g>
		<path class="st3" d="M838.13,423.73v-14.45h-4.06v14.45C835.22,423.91,837.09,423.9,838.13,423.73z"/>
		<g>
			<path class="st4" d="M841.03,369.73c0.58-4.31-1.33-9.54-6.55-9.37c-5.57,0.18-8.79,6.55-6.39,11.7
				c-4.4,0.58-9.12,7.8-5.64,14.02c-3.98,1.33-6.88,7.47-3.4,12.44c-4.12,4.94,0.08,12.61,6.14,12.03
				c3.82,2.32,10.37,2.07,13.94-0.25c0.93,0.39,1.85,0.61,2.76,0.7v-41.05C841.61,369.86,841.33,369.78,841.03,369.73z"/>
		</g>
	</g>
	<g>
		<path class="st3" d="M128.74,427.23v-14.45h-4.06v14.45C125.83,427.41,127.7,427.39,128.74,427.23z"/>
		<path class="st4" d="M125.09,363.85c5.23-0.17,7.13,5.06,6.55,9.37c5.39,0.91,8.54,8.05,5.81,12.94c4.56,1.58,5.89,9.95,2.9,13.02
			c3.73,3.4,3.25,8.81,0.58,11.7c-2.99,3.23-7.05,4.65-11.2,2.9c-3.57,2.32-10.12,2.57-13.94,0.25c-6.06,0.58-10.26-7.09-6.14-12.03
			c-3.48-4.98-0.58-11.12,3.4-12.44c-3.48-6.22,1.24-13.44,5.64-14.02C116.3,370.41,119.52,364.03,125.09,363.85z"/>
	</g>
	<g>
		<path class="st5" d="M709.57,434.14v-14.87h-4.18v14.87C706.57,434.32,708.5,434.31,709.57,434.14z"/>
		<path class="st6" d="M707.13,369.12c4.07,0,8,3.95,6.65,8.62c4.46,1.77,6.2,7.91,3.5,10.78c5.21,2.61,6.65,10.9,2.22,13.78
			c5.24,3.29,5.99,9.34,3.47,13.42s-7.07,4.67-11.5,2.76c-5.15,2.52-13.3,3.79-18.09-0.21c-5.48-4.58-3.59-11.32,0.84-13.93
			c-3.8-3.68-2.55-10.96,2.16-13.06c-3.26-5.09-0.12-10.3,3.95-11.26C697.96,374.15,701.98,369,707.13,369.12z"/>
	</g>
	<g>
		<path class="st7" d="M65.88,422.19v-14.87H61.7v14.87C62.89,422.38,64.81,422.36,65.88,422.19z"/>
		<path class="st6" d="M61.64,359.33c4.07,0,8,3.95,6.65,8.62c4.46,1.77,6.2,7.91,3.5,10.78c5.21,2.61,6.65,10.9,2.22,13.78
			c5.24,3.29,5.99,9.34,3.47,13.42c-2.52,4.07-7.07,4.67-11.5,2.76c-5.15,2.52-13.3,3.79-18.09-0.21
			c-5.48-4.58-3.59-11.32,0.84-13.93c-3.8-3.68-2.55-10.96,2.16-13.06c-3.26-5.09-0.12-10.3,3.95-11.26
			C52.48,364.36,56.49,359.21,61.64,359.33z"/>
	</g>
	<g>
		<path class="st5" d="M575.37,480.2v-14.87h-4.18v14.87C572.38,480.39,574.3,480.37,575.37,480.2z"/>
		<path class="st6" d="M572.93,415.18c4.07,0,8,3.95,6.65,8.62c4.46,1.77,6.2,7.91,3.5,10.78c5.21,2.61,6.65,10.9,2.22,13.78
			c5.24,3.29,5.99,9.34,3.47,13.42s-7.07,4.67-11.5,2.76c-5.15,2.52-13.3,3.79-18.09-0.21c-5.48-4.58-3.59-11.32,0.84-13.93
			c-3.8-3.68-2.55-10.96,2.16-13.06c-3.26-5.09-0.12-10.3,3.95-11.26C563.77,420.22,567.78,415.07,572.93,415.18z"/>
	</g>
	<g>
		<path class="st5" d="M519.63,487.5v-14.87h-4.18v14.87C516.63,487.69,518.56,487.67,519.63,487.5z"/>
		<path class="st8" d="M517.19,422.48c4.07,0,8,3.95,6.65,8.62c4.46,1.77,6.2,7.91,3.5,10.78c5.21,2.61,6.65,10.9,2.22,13.78
			c5.24,3.29,5.99,9.34,3.47,13.42s-7.07,4.67-11.5,2.76c-5.15,2.52-13.3,3.79-18.09-0.21c-5.48-4.58-3.59-11.32,0.84-13.93
			c-3.8-3.68-2.55-10.96,2.16-13.06c-3.26-5.09-0.12-10.3,3.95-11.26C508.03,427.52,512.04,422.36,517.19,422.48z"/>
	</g>
	<g>
		<path class="st5" d="M178.54,482.86v-14.87h-4.18v14.87C175.55,483.04,177.48,483.03,178.54,482.86z"/>
		<path class="st8" d="M176.1,417.84c4.07,0,8,3.95,6.65,8.62c4.46,1.77,6.2,7.91,3.5,10.78c5.21,2.61,6.65,10.9,2.22,13.78
			c5.24,3.29,5.99,9.34,3.47,13.42s-7.07,4.67-11.5,2.76c-5.15,2.52-13.3,3.79-18.09-0.21c-5.48-4.58-3.59-11.32,0.84-13.93
			c-3.8-3.68-2.55-10.96,2.16-13.06c-3.26-5.09-0.12-10.3,3.95-11.26C166.94,422.87,170.95,417.72,176.1,417.84z"/>
	</g>
	<g>
		<rect x="283.41" y="423.46" class="st7" width="3.85" height="13.7"/>
		<path class="st6" d="M283.58,375.37c4.07,0,8,3.95,6.65,8.62c4.46,1.77,6.2,7.91,3.5,10.78c5.21,2.61,6.65,10.9,2.22,13.78
			c5.24,3.29,5.99,9.34,3.47,13.42s-7.07,4.67-11.5,2.76c-5.15,2.52-13.3,3.79-18.09-0.21c-5.48-4.58-3.59-11.32,0.84-13.93
			c-3.8-3.68-2.55-10.96,2.16-13.06c-3.26-5.09-0.12-10.3,3.95-11.26C274.41,380.4,278.42,375.25,283.58,375.37z"/>
	</g>
	<g>
		<rect x="474.48" y="415.88" class="st7" width="3.85" height="13.7"/>
		<path class="st6" d="M474.65,370.45c4.07,0,8,3.95,6.65,8.62c4.46,1.77,6.2,7.91,3.5,10.78c5.21,2.61,6.65,10.9,2.22,13.78
			c5.24,3.29,5.99,9.34,3.47,13.42c-2.52,4.07-7.07,4.67-11.5,2.76c-5.15,2.52-13.3,3.79-18.09-0.21
			c-5.48-4.58-3.59-11.32,0.84-13.93c-3.8-3.68-2.55-10.96,2.16-13.06c-3.26-5.09-0.12-10.3,3.95-11.26
			C465.49,375.48,469.5,370.33,474.65,370.45z"/>
	</g>
	<path class="st4" d="M8.43,407.39c2.67-2.89,3.15-8.29-0.58-11.7c2.99-3.07,1.66-11.45-2.9-13.02c2.59-4.63-0.09-11.25-4.95-12.73
		V411C3.15,411.3,6.12,409.9,8.43,407.39z"/>
	<g>
		<path class="st9" d="M820.66,440.67c-1.39,2.59-2.54,5.3-3.46,8.09c-0.23,0.7,0.87,1,1.1,0.3c0.88-2.7,2-5.31,3.34-7.82
			C821.99,440.6,821.01,440.02,820.66,440.67L820.66,440.67z"/>
		<path class="st9" d="M816.57,441.62c-1.95,2.81-3.39,5.96-4.25,9.27c-0.18,0.71,0.92,1.02,1.1,0.3c0.84-3.23,2.24-6.26,4.14-9
			C817.98,441.59,816.99,441.02,816.57,441.62L816.57,441.62z"/>
		<path class="st9" d="M809.57,439.82c-0.74,1.75-1.24,3.59-1.67,5.43c-0.46,1.95-0.88,3.97-0.92,5.99c-0.02,0.74,1.13,0.74,1.14,0
			c0.04-1.91,0.44-3.83,0.88-5.68c0.41-1.74,0.86-3.51,1.56-5.16C810.84,439.73,809.85,439.14,809.57,439.82L809.57,439.82z"/>
	</g>
	<g>
		<path class="st9" d="M562.13,484.14c-1.39,2.59-2.54,5.3-3.46,8.09c-0.23,0.7,0.87,1,1.1,0.3c0.88-2.7,2-5.31,3.34-7.82
			C563.47,484.07,562.48,483.49,562.13,484.14L562.13,484.14z"/>
		<path class="st9" d="M558.04,485.09c-1.95,2.81-3.39,5.96-4.25,9.27c-0.18,0.71,0.92,1.02,1.1,0.3c0.84-3.23,2.24-6.26,4.14-9
			C559.45,485.06,558.46,484.49,558.04,485.09L558.04,485.09z"/>
		<path class="st9" d="M551.04,483.29c-0.74,1.75-1.24,3.59-1.67,5.43c-0.46,1.95-0.88,3.97-0.92,5.99c-0.02,0.74,1.13,0.74,1.14,0
			c0.04-1.91,0.44-3.83,0.88-5.68c0.41-1.74,0.86-3.51,1.56-5.16C552.31,483.2,551.32,482.61,551.04,483.29L551.04,483.29z"/>
	</g>
	<g>
		<path class="st9" d="M235.45,453.54c-1.39,2.59-2.54,5.3-3.46,8.09c-0.23,0.7,0.87,1,1.1,0.3c0.88-2.7,2-5.31,3.34-7.82
			C236.79,453.47,235.8,452.89,235.45,453.54L235.45,453.54z"/>
		<path class="st9" d="M231.36,454.48c-1.95,2.81-3.39,5.96-4.25,9.27c-0.18,0.71,0.92,1.02,1.1,0.3c0.84-3.23,2.24-6.26,4.14-9
			C232.77,454.45,231.78,453.88,231.36,454.48L231.36,454.48z"/>
		<path class="st9" d="M224.36,452.68c-0.74,1.75-1.24,3.59-1.67,5.43c-0.46,1.95-0.88,3.97-0.92,5.99c-0.02,0.74,1.13,0.74,1.14,0
			c0.04-1.91,0.44-3.83,0.88-5.68c0.41-1.74,0.86-3.51,1.56-5.16C225.63,452.59,224.64,452.01,224.36,452.68L224.36,452.68z"/>
	</g>
	<g>
		<path class="st9" d="M194.45,486.45c-1.39,2.59-2.54,5.3-3.46,8.09c-0.23,0.7,0.87,1,1.1,0.3c0.88-2.7,2-5.31,3.34-7.82
			C195.78,486.38,194.8,485.8,194.45,486.45L194.45,486.45z"/>
		<path class="st9" d="M190.36,487.4c-1.95,2.81-3.39,5.96-4.25,9.27c-0.18,0.71,0.92,1.02,1.1,0.3c0.84-3.23,2.24-6.26,4.14-9
			C191.77,487.37,190.78,486.8,190.36,487.4L190.36,487.4z"/>
		<path class="st9" d="M183.36,485.6c-0.74,1.75-1.24,3.59-1.67,5.43c-0.46,1.95-0.88,3.97-0.92,5.99c-0.02,0.74,1.13,0.74,1.14,0
			c0.04-1.91,0.44-3.83,0.88-5.68c0.41-1.74,0.86-3.51,1.56-5.16C184.63,485.51,183.64,484.93,183.36,485.6L183.36,485.6z"/>
	</g>
	<g>
		<path class="st9" d="M80.56,480.32c-1.39,2.59-2.54,5.3-3.46,8.09c-0.23,0.7,0.87,1,1.1,0.3c0.88-2.7,2-5.31,3.34-7.82
			C81.89,480.25,80.91,479.67,80.56,480.32L80.56,480.32z"/>
		<path class="st9" d="M76.47,481.26c-1.95,2.81-3.39,5.96-4.25,9.27c-0.18,0.71,0.92,1.02,1.1,0.3c0.84-3.23,2.24-6.26,4.14-9
			C77.88,481.23,76.89,480.66,76.47,481.26L76.47,481.26z"/>
		<path class="st9" d="M69.47,479.46c-0.74,1.75-1.24,3.59-1.67,5.43c-0.46,1.95-0.88,3.97-0.92,5.99c-0.02,0.74,1.13,0.74,1.14,0
			c0.04-1.91,0.44-3.83,0.88-5.68c0.41-1.74,0.86-3.51,1.56-5.16C70.74,479.37,69.75,478.79,69.47,479.46L69.47,479.46z"/>
	</g>
	<g>
		<path class="st9" d="M784.98,478.01c-1.39,2.59-2.54,5.3-3.46,8.09c-0.23,0.7,0.87,1,1.1,0.3c0.88-2.7,2-5.31,3.34-7.82
			C786.32,477.93,785.33,477.36,784.98,478.01L784.98,478.01z"/>
		<path class="st9" d="M780.89,478.95c-1.95,2.81-3.39,5.96-4.25,9.27c-0.18,0.71,0.92,1.02,1.1,0.3c0.84-3.23,2.24-6.26,4.14-9
			C782.3,478.92,781.31,478.35,780.89,478.95L780.89,478.95z"/>
		<path class="st9" d="M773.89,477.15c-0.74,1.75-1.24,3.59-1.67,5.43c-0.46,1.95-0.88,3.97-0.92,5.99c-0.02,0.74,1.13,0.74,1.14,0
			c0.04-1.91,0.44-3.83,0.88-5.68c0.41-1.74,0.86-3.51,1.56-5.16C775.16,477.06,774.17,476.48,773.89,477.15L773.89,477.15z"/>
	</g>
	<g>
		<path class="st9" d="M286.2,478.47c-1.39,2.59-2.54,5.3-3.46,8.09c-0.23,0.7,0.87,1,1.1,0.3c0.88-2.7,2-5.31,3.34-7.82
			C287.53,478.4,286.55,477.82,286.2,478.47L286.2,478.47z"/>
		<path class="st9" d="M299.72,479.42c-1.95,2.81-3.39,5.96-4.25,9.27c-0.18,0.71,0.92,1.02,1.1,0.3c0.84-3.23,2.24-6.26,4.14-9
			C301.13,479.39,300.14,478.82,299.72,479.42L299.72,479.42z"/>
		<path class="st9" d="M293.46,476.88c-0.74,1.75-1.24,3.59-1.67,5.43c-0.46,1.95-0.88,3.97-0.92,5.99c-0.02,0.74,1.13,0.74,1.14,0
			c0.04-1.91,0.44-3.83,0.88-5.68c0.41-1.74,0.86-3.51,1.56-5.16C294.72,476.79,293.74,476.21,293.46,476.88L293.46,476.88z"/>
	</g>
	<g>
		<path class="st9" d="M69.32,441.71c-1.39,2.59-2.54,5.3-3.46,8.09c-0.23,0.7,0.87,1,1.1,0.3c0.88-2.7,2-5.31,3.34-7.82
			C70.65,441.63,69.67,441.06,69.32,441.71L69.32,441.71z"/>
		<path class="st9" d="M82.84,442.65c-1.95,2.81-3.39,5.96-4.25,9.27c-0.18,0.71,0.92,1.02,1.1,0.3c0.84-3.23,2.24-6.26,4.14-9
			C84.25,442.62,83.26,442.05,82.84,442.65L82.84,442.65z"/>
		<path class="st9" d="M76.58,440.11c-0.74,1.75-1.24,3.59-1.67,5.43c-0.46,1.95-0.88,3.97-0.92,5.99c-0.02,0.74,1.13,0.74,1.14,0
			c0.04-1.91,0.44-3.83,0.88-5.68c0.41-1.74,0.86-3.51,1.56-5.16C77.85,440.02,76.86,439.44,76.58,440.11L76.58,440.11z"/>
	</g>
	<g>
		<path class="st9" d="M122.07,474.39c-1.39,2.59-2.54,5.3-3.46,8.09c-0.23,0.7,0.87,1,1.1,0.3c0.88-2.7,2-5.31,3.34-7.82
			C123.4,474.32,122.42,473.74,122.07,474.39L122.07,474.39z"/>
		<path class="st9" d="M135.59,475.33c-1.95,2.81-3.39,5.96-4.25,9.27c-0.18,0.71,0.92,1.02,1.1,0.3c0.84-3.23,2.24-6.26,4.14-9
			C137,475.3,136.01,474.73,135.59,475.33L135.59,475.33z"/>
		<path class="st9" d="M129.33,472.8c-0.74,1.75-1.24,3.59-1.67,5.43c-0.46,1.95-0.88,3.97-0.92,5.99c-0.02,0.74,1.13,0.74,1.14,0
			c0.04-1.91,0.44-3.83,0.88-5.68c0.41-1.74,0.86-3.51,1.56-5.16C130.59,472.7,129.61,472.12,129.33,472.8L129.33,472.8z"/>
	</g>
	<g>
		<path class="st9" d="M698.49,484.61c-1.39,2.59-2.54,5.3-3.46,8.09c-0.23,0.7,0.87,1,1.1,0.3c0.88-2.7,2-5.31,3.34-7.82
			C699.83,484.54,698.84,483.96,698.49,484.61L698.49,484.61z"/>
		<path class="st9" d="M712.01,485.55c-1.95,2.81-3.39,5.96-4.25,9.27c-0.18,0.71,0.92,1.02,1.1,0.3c0.84-3.23,2.24-6.26,4.14-9
			C713.42,485.53,712.43,484.95,712.01,485.55L712.01,485.55z"/>
		<path class="st9" d="M705.75,483.02c-0.74,1.75-1.24,3.59-1.67,5.43c-0.46,1.95-0.88,3.97-0.92,5.99c-0.02,0.74,1.13,0.74,1.14,0
			c0.04-1.91,0.44-3.83,0.88-5.68c0.41-1.74,0.86-3.51,1.56-5.16C707.02,482.93,706.03,482.34,705.75,483.02L705.75,483.02z"/>
	</g>
	<g>
		<path class="st9" d="M747.85,443.71c-1.39,2.59-2.54,5.3-3.46,8.09c-0.23,0.7,0.87,1,1.1,0.3c0.88-2.7,2-5.31,3.34-7.82
			C749.18,443.64,748.19,443.06,747.85,443.71L747.85,443.71z"/>
		<path class="st9" d="M761.37,444.65c-1.95,2.81-3.39,5.96-4.25,9.27c-0.18,0.71,0.92,1.02,1.1,0.3c0.84-3.23,2.24-6.26,4.14-9
			C762.77,444.63,761.78,444.05,761.37,444.65L761.37,444.65z"/>
		<path class="st9" d="M755.1,442.12c-0.74,1.75-1.24,3.59-1.67,5.43c-0.46,1.95-0.88,3.97-0.92,5.99c-0.02,0.74,1.13,0.74,1.14,0
			c0.04-1.91,0.44-3.83,0.88-5.68c0.41-1.74,0.86-3.51,1.56-5.16C756.37,442.03,755.39,441.44,755.1,442.12L755.1,442.12z"/>
	</g>
	<g>
		<path class="st9" d="M24.04,437.43c-1.39,2.59-2.54,5.3-3.46,8.09c-0.23,0.7,0.87,1,1.1,0.3c0.88-2.7,2-5.31,3.34-7.82
			C25.37,437.36,24.39,436.78,24.04,437.43L24.04,437.43z"/>
		<path class="st9" d="M19.95,438.38c-1.95,2.81-3.39,5.96-4.25,9.27c-0.18,0.71,0.92,1.02,1.1,0.3c0.84-3.23,2.24-6.26,4.14-9
			C21.36,438.35,20.37,437.78,19.95,438.38L19.95,438.38z"/>
		<path class="st9" d="M28.84,439.82c-0.74,1.75-1.24,3.59-1.67,5.43c-0.46,1.95-0.88,3.97-0.92,5.99c-0.02,0.74,1.13,0.74,1.14,0
			c0.04-1.91,0.44-3.83,0.88-5.68c0.41-1.74,0.86-3.51,1.56-5.16C30.1,439.73,29.12,439.14,28.84,439.82L28.84,439.82z"/>
	</g>
	<g>
		<path class="st9" d="M373.4,473.1c-1.39,2.59-2.54,5.3-3.46,8.09c-0.23,0.7,0.87,1,1.1,0.3c0.88-2.7,2-5.31,3.34-7.82
			C374.73,473.03,373.75,472.45,373.4,473.1L373.4,473.1z"/>
		<path class="st9" d="M369.31,474.04c-1.95,2.81-3.39,5.96-4.25,9.27c-0.18,0.71,0.92,1.02,1.1,0.3c0.84-3.23,2.24-6.26,4.14-9
			C370.72,474.01,369.73,473.44,369.31,474.04L369.31,474.04z"/>
		<path class="st9" d="M378.19,475.48c-0.74,1.75-1.24,3.59-1.67,5.43c-0.46,1.95-0.88,3.97-0.92,5.99c-0.02,0.74,1.13,0.74,1.14,0
			c0.04-1.91,0.44-3.83,0.88-5.68c0.41-1.74,0.86-3.51,1.56-5.16C379.46,475.39,378.48,474.81,378.19,475.48L378.19,475.48z"/>
	</g>
	<g>
		<path class="st9" d="M446.58,447.6c-1.39,2.59-2.54,5.3-3.46,8.09c-0.23,0.7,0.87,1,1.1,0.3c0.88-2.7,2-5.31,3.34-7.82
			C447.91,447.53,446.93,446.95,446.58,447.6L446.58,447.6z"/>
		<path class="st9" d="M442.49,448.54c-1.95,2.81-3.39,5.96-4.25,9.27c-0.18,0.71,0.92,1.02,1.1,0.3c0.84-3.23,2.24-6.26,4.14-9
			C443.9,448.51,442.91,447.94,442.49,448.54L442.49,448.54z"/>
		<path class="st9" d="M451.38,449.98c-0.74,1.75-1.24,3.59-1.67,5.43c-0.46,1.95-0.88,3.97-0.92,5.99c-0.02,0.74,1.13,0.74,1.14,0
			c0.04-1.91,0.44-3.83,0.88-5.68c0.41-1.74,0.86-3.51,1.56-5.16C452.64,449.89,451.66,449.31,451.38,449.98L451.38,449.98z"/>
	</g>
	<g>
		<path class="st9" d="M649.69,448.51c-1.39,2.59-2.54,5.3-3.46,8.09c-0.23,0.7,0.87,1,1.1,0.3c0.88-2.7,2-5.31,3.34-7.82
			C651.02,448.44,650.04,447.86,649.69,448.51L649.69,448.51z"/>
		<path class="st9" d="M645.6,449.46c-1.95,2.81-3.39,5.96-4.25,9.27c-0.18,0.71,0.92,1.02,1.1,0.3c0.84-3.23,2.24-6.26,4.14-9
			C647.01,449.43,646.02,448.86,645.6,449.46L645.6,449.46z"/>
		<path class="st9" d="M654.49,450.9c-0.74,1.75-1.24,3.59-1.67,5.43c-0.46,1.95-0.88,3.97-0.92,5.99c-0.02,0.74,1.13,0.74,1.14,0
			c0.04-1.91,0.44-3.83,0.88-5.68c0.41-1.74,0.86-3.51,1.56-5.16C655.75,450.8,654.77,450.22,654.49,450.9L654.49,450.9z"/>
	</g>
	<g>
		<path class="st9" d="M344.17,448.51c-1.39,2.59-2.54,5.3-3.46,8.09c-0.23,0.7,0.87,1,1.1,0.3c0.88-2.7,2-5.31,3.34-7.82
			C345.51,448.44,344.52,447.86,344.17,448.51L344.17,448.51z"/>
		<path class="st9" d="M340.08,449.46c-1.95,2.81-3.39,5.96-4.25,9.27c-0.18,0.71,0.92,1.02,1.1,0.3c0.84-3.23,2.24-6.26,4.14-9
			C341.49,449.43,340.5,448.86,340.08,449.46L340.08,449.46z"/>
		<path class="st9" d="M348.97,450.9c-0.74,1.75-1.24,3.59-1.67,5.43c-0.46,1.95-0.88,3.97-0.92,5.99c-0.02,0.74,1.13,0.74,1.14,0
			c0.04-1.91,0.44-3.83,0.88-5.68c0.41-1.74,0.86-3.51,1.56-5.16C350.24,450.8,349.25,450.22,348.97,450.9L348.97,450.9z"/>
	</g>
</g>
<g id="Clouds">
	<path class="st10" d="M528.56,173.42c0-13.94,27.32-23.67,45.68-24.55c15.91-0.77,27.65,0.55,41.25,4.53
		c20.68-13.38,56.74-14.93,80.29-7.3c18.25-7.41,44.13-5.97,60.06,9.95c26.99-2.1,44.91,7.62,45.12,22.23
		c0.22,14.82-35.83,24.88-59.39,18.91c-33.84,11.94-64.26,9.4-82.62,0.66c-43.8,9.95-61.71,2.32-72.66-2.65
		C560.75,198.63,528.56,188.21,528.56,173.42z"/>
	<path class="st10" d="M347.27,219.4c0,11.98-19.39,20.34-32.43,21.1c-11.29,0.66-19.63-0.48-29.29-3.9
		c-14.68,11.5-67.77,13.47-82.33,1.36c-21.23,5.1-50.34-3.38-50.34-15.94c0-15.94,25.17-23.28,43.46-19.55
		c20.83-10.43,45.32-11.59,58.35-4.08c20.71-7.62,43.81-2,51.59,2.28C324.43,197.72,347.27,206.68,347.27,219.4z"/>
</g>
</svg>
