<?xml version="1.0" encoding="utf-8"?>
<!-- Generator: Adobe Illustrator 24.1.1, SVG Export Plug-In . SVG Version: 6.00 Build 0)  -->
<svg version="1.1" xmlns="http://www.w3.org/2000/svg" xmlns:xlink="http://www.w3.org/1999/xlink" x="0px" y="0px"
	 viewBox="0 0 750 500" style="enable-background:new 0 0 750 500;" xml:space="preserve">
<style type="text/css">
	.st0{fill:#EEC5B9;}
	.st1{opacity:0.1;clip-path:url(#SVGID_2_);fill:#F9F9F9;}
	.st2{clip-path:url(#SVGID_2_);}
	.st3{fill:#EDAE9B;}
	.st4{fill:#E89AA3;}
	.st5{fill:#AF8CAD;}
	.st6{fill:#9E81A8;}
	.st7{fill:#84617E;}
	.st8{fill:#281F32;}
	.st9{clip-path:url(#SVGID_2_);fill:#F9F9F9;}
</style>
<g id="BACKGROUND">
	<rect class="st0" width="750" height="500"/>
</g>
<g id="OBJECTS">
	<g>
		<defs>
			<rect id="SVGID_1_" width="750" height="500"/>
		</defs>
		<clipPath id="SVGID_2_">
			<use xlink:href="#SVGID_1_"  style="overflow:visible;"/>
		</clipPath>
		<path class="st1" d="M792.36,97.29c-68.7-16.43-138.53,16.79-201.09,49.59s-131.38,67.2-200.61,53.15
			c-37.7-7.65-70.99-29.06-107.03-42.49c-49.82-18.56-104.36-21.56-157.26-16.29c-52.9,5.28-104.63,18.55-156.12,31.79
			c-0.39,0.77-2.23,3.04-2.62,3.81v59.03c271.94,0,544.93,11.14,816.83,16.09L792.36,97.29z"/>
		<path class="st1" d="M800.34,147.09c-14.7-4.58-29.4-9.17-44.1-13.75c-25.83-8.05-51.74-16.13-78.36-20.93
			c-70.42-12.71-144.85-1.61-208.7,30.7c-49.72,25.16-94.25,63.11-148.77,74.65c1.76,0-0.83,3.69,0.93,3.69h460.33L800.34,147.09z"
			/>
		<path class="st1" d="M303.3,220.78c-49.8-12.33-93.69-41.11-140.67-61.73c-76.7-33.66-162.89-45.37-245.79-33.38
			c-0.27,1.68,0.31,3.66,0.03,5.34v96.54L303.3,220.78z"/>
		<g class="st2">
			<path class="st3" d="M-118.53,189.42l103.23-44.33c4.86-2.09,11.56-2.16,16.56-0.18l102.16,40.55c5.15,2.05,12.09,1.9,16.96-0.35
				l11.36-5.26c4.98-2.3,12.09-2.4,17.25-0.24l50.94,21.34c4.84,2.03,11.43,2.08,16.38,0.14l10.42-4.1
				c4.91-1.93,11.44-1.89,16.27,0.1l9.32,3.83c4.96,2.04,11.69,2.02,16.62-0.04l82.58-34.58c5.05-2.12,11.98-2.07,16.95,0.1
				l18.07,7.9c5.59,2.44,13.52,2.16,18.52-0.66l0,0c5.02-2.84,13-3.11,18.59-0.63l41,18.17c5.17,2.29,12.47,2.25,17.55-0.1
				l21.78-10.07c4.81-2.22,11.63-2.4,16.77-0.42l13.64,5.23c4.87,1.87,11.28,1.82,16.06-0.11l102.79-41.62
				c3.86-1.56,8.86-1.92,13.29-0.94l87.36,19.29c4.53,1,9.64,0.61,13.53-1.04l46.04-19.51c5.03-2.13,11.97-2.11,16.96,0.05
				l33.34,14.44c3.47,1.5,5.5,3.83,5.5,6.3v175.16c0,4.38-6.28,7.93-14.04,7.93h-965.26c-7.75,0-14.04-3.55-14.04-7.93v-142.1
				C-124.07,193.25-122.02,190.92-118.53,189.42z"/>
			<path class="st4" d="M-26.17,220.46l63.2-28.01c11.27-4.99,23.92-5.96,35.81-2.73l77.37,20.98c8.12,2.2,16.64,2.47,24.88,0.77
				l6.33-1.3c8.08-1.66,16.43-1.44,24.41,0.64l88.6,23.17c9.74,2.55,20,2.3,29.6-0.7l54.98-17.18c10-3.13,20.7-3.26,30.77-0.38h0
				c10.81,3.09,22.32,2.71,32.9-1.09l7.3-2.62c7.99-2.87,16.55-3.8,24.98-2.72l147.59,18.94c7.21,0.92,14.52,0.38,21.51-1.61
				l113.34-32.2v192.23c0,29.66-24.04,53.7-53.7,53.7H27.53c-29.66,0-53.7-24.04-53.7-53.7V220.46z"/>
			<path class="st5" d="M-26.17,348.01c0-19.17,14.09-35.43,33.07-38.15l140.06-50.88c7.22-2.62,15.09-2.92,22.49-0.85l90.31,25.25
				c0.69-0.13,61.31-16.75,62.01-16.84l65.97-16.66c1.67-0.22,3.36-0.33,5.04-0.33h17.13c3.66,0,7.3,0.52,10.81,1.55L516.29,279
				c6.87,2.01,14.16,2.06,21.06,0.16L601,261.59c2.81-0.78,5.53-1.87,8.1-3.26l57.27-31.02c5.64-3.05,11.95-4.65,18.36-4.65h4.75
				c4.49,0,8.95-0.79,13.17-2.32l8.91-3.24c10.58-3.85,22.31-2.88,32.11,2.66l20.59,11.62v116.64c0,21.28-17.25,38.54-38.54,38.54
				H12.37C-8.92,386.55-26.17,369.29-26.17,348.01L-26.17,348.01z"/>
			<path class="st6" d="M-36.42,258.83l60.36-20.34c1.58-0.53,3.12-1.17,4.61-1.9l17.75-8.73c5.19-2.55,10.89-3.88,16.66-3.88h9.61
				c8.71,0,17.14,3.01,23.89,8.52l60.26,49.23l85.03,64c4.97,3.74,10.78,6.19,16.93,7.15l58.46,9.06c1.91,0.3,3.85,0.45,5.78,0.45
				h61.34c6.19,0,12.28-1.52,17.75-4.43l98.65-52.54c1.03-0.55,2.09-1.05,3.16-1.5l28.36-11.88c5.81-2.43,12.14-3.37,18.4-2.74
				l31.47,3.2c4.48,0.46,8.84,1.71,12.87,3.7l50.47,24.87c8.44,4.16,18.13,5.02,27.17,2.41l18.52-5.35
				c7.94-2.29,16.41-1.92,24.11,1.06l8.8,3.41c6.66,2.58,13.9,3.21,20.91,1.84l45.03-8.85v84.63H1.33
				c-20.85,0-37.76-16.9-37.76-37.76V258.83z"/>
			<path class="st7" d="M-59.24,389.89l115.55-36.23c1.25-0.39,2.45-0.91,3.58-1.56l41.08-23.36c5.02-2.85,11.08-3.18,16.38-0.89
				l49.47,21.44c1.22,0.53,2.48,0.92,3.78,1.17l199.73,38.97c1.53,0.3,3.09,0.4,4.65,0.31l76.59-4.73c1.12-0.07,2.23-0.24,3.32-0.51
				l109.13-27.28c0.46-0.11,0.92-0.21,1.38-0.29l52.78-8.95c3.42-0.58,6.6-2.11,9.18-4.43l69.05-61.88c2.37-2.12,5.25-3.6,8.36-4.27
				l54.96-11.91v190.81H-59.24V389.89z"/>
			<path class="st8" d="M680.52,382.07l-10.53,3.16c-9.13,2.74-18.94,2-27.55-2.08l-14.79-7.01c-9.29-4.4-19.96-4.9-29.62-1.4
				l-55.39,20.09c-3.91,1.42-8.02,2.19-12.17,2.3l-78.98,1.97c-3.07,0.08-6.12,0.52-9.08,1.32L321.5,433.09
				c-3.27,0.88-6.65,1.33-10.04,1.33H251.5c-5.49,0-10.91-1.17-15.91-3.44l-69.53-31.55c-2.5-1.14-5.12-2-7.8-2.58l-84.25-18.15
				c-5.96-1.28-12.14-1.13-18.03,0.44l-69.67,18.58V502h790.08v-91.18l-70.75-27.71C697.62,379.96,688.78,379.6,680.52,382.07z"/>
		</g>
		
			<ellipse transform="matrix(0.7071 -0.7071 0.7071 0.7071 103.5066 429.9769)" class="st9" cx="570.78" cy="90.04" rx="26.22" ry="26.22"/>
		<g class="st2">
			<path class="st8" d="M281.06,191.64c0,0,1.66,4.54,10.69,6.57l5.1,2.85l3.18-0.41l-2.52-2.43c0,0,5.47-2.63,8.38-5.71l5.27-1.88
				c0,0-8.77,1.29-13.21,4.92l-3.12,1.61l-8.42-2.07C286.39,195.08,282.59,193.15,281.06,191.64z"/>
			<path class="st8" d="M14.95,80.85c0,0,1.38,3.78,8.89,5.46l4.24,2.37l2.64-0.34l-2.1-2.02c0,0,4.55-2.18,6.97-4.75L39.98,80
				c0,0-7.29,1.07-10.99,4.1l-2.6,1.34l-7-1.73C19.38,83.71,16.22,82.1,14.95,80.85z"/>
			<path class="st8" d="M191.71,175.34c0,0,2.11,7.09,15.72,11.02l7.52,4.83l4.89-0.34l-3.63-3.95c0,0,8.6-3.5,13.32-7.95l8.22-2.39
				c0,0-13.51,1.15-20.63,6.29l-4.92,2.16l-12.67-3.95C199.53,181.08,193.91,177.77,191.71,175.34z"/>
			<path class="st8" d="M228.31,142.74c0,0,1.3,4.35,9.65,6.74l4.61,2.95l3-0.21l-2.23-2.42c0,0,5.27-2.16,8.16-4.89l5.04-1.47
				c0,0-8.28,0.72-12.64,3.88l-3.01,1.33l-7.77-2.41C233.11,146.25,229.66,144.23,228.31,142.74z"/>
			<path class="st8" d="M142.86,190.39c0,0,0.73,2.45,5.43,3.79l2.6,1.66l1.69-0.12l-1.26-1.36c0,0,2.96-1.21,4.59-2.75l2.84-0.83
				c0,0-4.66,0.41-7.12,2.19l-1.7,0.75l-4.37-1.35C145.56,192.37,143.62,191.23,142.86,190.39z"/>
			<path class="st8" d="M343.92,172.61c0,0,0.73,2.45,5.43,3.79l2.6,1.66l1.69-0.12l-1.26-1.36c0,0,2.96-1.21,4.59-2.75l2.84-0.83
				c0,0-4.66,0.41-7.12,2.19l-1.7,0.75l-4.37-1.35C346.62,174.59,344.68,173.45,343.92,172.61z"/>
			<polygon class="st8" points="196.91,153.29 193.78,153.81 183.67,154.57 187.85,155.7 184.83,156.84 178.44,155.15 
				171.23,154.57 165.88,155.15 170.99,154.11 177.99,154.33 180.06,153.58 187.02,153.81 			"/>
			<polygon class="st8" points="385.48,236.77 381.46,237.44 368.52,238.41 373.87,239.87 370.01,241.32 361.82,239.15 
				352.6,238.41 345.76,239.15 352.3,237.83 361.26,238.11 363.91,237.15 372.82,237.44 			"/>
			<polygon class="st8" points="311.15,120.09 308.79,120.48 301.19,121.05 304.34,121.9 302.07,122.76 297.26,121.48 
				291.85,121.05 287.83,121.48 291.67,120.7 296.93,120.87 298.49,120.31 303.72,120.48 			"/>
			<polygon class="st8" points="222.99,114.65 221.32,114.93 215.94,115.33 218.17,115.94 216.56,116.54 213.16,115.64 
				209.32,115.33 206.48,115.64 209.2,115.09 212.92,115.21 214.02,114.81 217.73,114.93 			"/>
			<polygon class="st8" points="307.14,167.17 303.13,167.84 290.18,168.8 295.54,170.26 291.67,171.72 283.49,169.55 274.26,168.8 
				267.42,169.55 273.96,168.22 282.92,168.5 285.57,167.54 294.48,167.84 			"/>
			<polygon class="st8" points="102.35,104.17 98.33,104.84 85.39,105.81 90.74,107.26 86.88,108.72 78.69,106.55 69.47,105.81 
				62.63,106.55 69.17,105.22 78.13,105.51 80.78,104.55 89.69,104.84 			"/>
			<polygon class="st8" points="110.02,136.2 120.87,138.44 131.89,143.52 133.61,145.54 135.99,145.27 136.32,142.92 
				143.69,136.49 153.52,135.06 142.82,135.19 135.03,139.61 131.17,139.89 121.74,137.22 			"/>
		</g>
	</g>
</g>
</svg>
