<?xml version="1.0" encoding="utf-8"?>
<!-- Generator: Adobe Illustrator 24.1.1, SVG Export Plug-In . SVG Version: 6.00 Build 0)  -->
<svg version="1.1" id="Capa_1" xmlns="http://www.w3.org/2000/svg" xmlns:xlink="http://www.w3.org/1999/xlink" x="0px" y="0px"
	 viewBox="0 0 754 500" style="enable-background:new 0 0 754 500;" xml:space="preserve">
<style type="text/css">
	.st0{fill:#EEC5B9;}
	.st1{fill:none;}
	.st2{opacity:0.1;fill:#F9F9F9;enable-background:new    ;}
	.st3{fill:#EDAE9B;}
	.st4{fill:#E89AA3;}
	.st5{fill:#AF8CAD;}
	.st6{fill:#9E81A8;}
	.st7{fill:#84617E;}
	.st8{fill:#281F32;}
</style>
<rect y="3.2" class="st0" width="750" height="500"/>
<rect x="4" class="st1" width="750" height="500"/>
<path class="st2" d="M753.9,123.7c-66.6,2.3-117.6,13.8-150.7,23.2c-96.8,27.6-128.7,66.5-192.7,53.1
	c-36.2-7.6-68.2-29.1-102.8-42.5c-48-18.5-100.4-21.5-151.2-16.2C105.7,146.5,56,159.8,6.5,173c-0.4,0.8-2.1,3-2.5,3.8v59
	c130.8,1,261.6,3.1,392.4,6.2c119.2,2.8,238.4,6.6,357.6,11.2C754,210,753.9,166.9,753.9,123.7z"/>
<rect x="4" class="st1" width="750" height="500"/>
<path class="st2" d="M753.9,188.9L753.9,188.9c-7.1-16.6-27.6-58.3-72-76.5c-13.1-5.4-29.1-7.5-58.9-8.1
	c-50.7-1.1-99.4,13.3-149.8,38.8c-49.7,25.2-94.3,63.1-148.8,74.7c1.8,0-0.8,3.7,0.9,3.7c142.9,1.1,285.8,2.1,428.7,3.2
	C754,212.8,753.9,200.8,753.9,188.9z"/>
<rect x="4" class="st1" width="750" height="500"/>
<path class="st2" d="M307.3,220.8c-39.1-12.3-73.5-41.1-110.4-61.7C136.7,125.4,69.1,113.7,4,125.7c-0.2,1.7,0.2,3.7,0,5.3v96.5
	L307.3,220.8z"/>
<rect x="4" class="st1" width="750" height="500"/>
<path class="st3" d="M4,190.9c31.1-15.3,62.3-30.5,93.4-45.8c4.2-2.1,9.9-2.2,14.2-0.2l87.7,40.6c4.4,2,10.4,1.9,14.6-0.4l9.7-5.3
	c4.3-2.3,10.4-2.4,14.8-0.2L282,201c4.2,2,9.8,2.1,14.1,0.1l8.9-4.1c4.2-1.9,9.8-1.9,14,0.1l8,3.8c4.3,2,10,2,14.3,0l70.9-34.6
	c4.3-2.1,10.3-2.1,14.5,0.1l15.5,7.9c4.8,2.4,11.6,2.2,15.9-0.7c4.3-2.8,11.2-3.1,16-0.6l35.2,18.2c4.4,2.3,10.7,2.3,15.1-0.1
	l18.7-10.1c4.1-2.2,10-2.4,14.4-0.4l11.7,5.2c4.2,1.9,9.7,1.8,13.8-0.1l88.2-41.6c3.3-1.6,7.6-1.9,11.4-0.9
	c23.8,15.2,47.5,30.5,71.3,45.7c0.1,18.9,0.1,37.8,0.1,56.8c0,33.7,0,67.4-0.2,101.1c-191,7.1-685,23.7-737.6-1
	c-8-3.7-12-7.9-12-7.9C4.1,290.5,4.1,243.1,4,195.7C4,194.1,4,192.5,4,190.9z"/>
<path class="st4" d="M4,220.5l61.1-28c10.9-5,23.1-6,34.6-2.7l74.8,21c7.8,2.2,16.1,2.5,24,0.8l6.1-1.3c7.8-1.7,15.9-1.4,23.6,0.6
	l85.6,23.2c9.4,2.6,19.3,2.3,28.6-0.7l53.1-17.2c9.7-3.1,20-3.3,29.7-0.4c10.4,3.1,21.6,2.7,31.8-1.1l7.1-2.6
	c7.7-2.9,16-3.8,24.1-2.7l142.6,18.9c7,0.9,14,0.4,20.8-1.6c14-3.8,31.2-7.3,51.2-8.9c19.6-1.5,36.9-0.8,51.1,0.7
	c0,26.6,0,53.3,0,79.9c0,29.8,0,59.7-0.1,89.5c0.5,2.3,4.4,20.9-7.9,36.8c-13.7,17.7-35.1,15.9-36.7,15.7H55.9
	c-28.7,0-51.9-24-51.9-53.7V220.5z"/>
<path class="st5" d="M4,348c0-19.2,13.6-35.4,32-38.1L171.3,259c7-2.6,14.6-2.9,21.7-0.9l87.3,25.3c0.7-0.1,59.2-16.8,59.9-16.8
	l63.7-16.7c1.6-0.2,3.2-0.3,4.9-0.3h16.6c3.5,0,7.1,0.5,10.4,1.6l92.3,27.9c6.6,2,13.7,2.1,20.3,0.2l61.5-17.6
	c2.7-0.8,5.3-1.9,7.8-3.3l55.3-31c5.4-3.1,11.5-4.7,17.7-4.7h4.6c2.2-0.4,4.4-0.6,6.5-0.6c27.6,0.1,47.2,33,52,41.6
	c-0.1,35.5-0.3,71-0.4,106.4c-7.7,5.5-15.4,11-23,16.4H41.2C20.7,386.5,4,369.3,4,348z"/>
<path class="st6" d="M4,258.8l57.6-20.3c1.5-0.5,3-1.2,4.4-1.9l16.9-8.7c4.9-2.5,10.4-3.9,15.9-3.9h9.2c8.3,0,16.3,3,22.8,8.5
	l57.5,49.2l81.1,64c4.7,3.7,10.3,6.2,16.1,7.1l55.8,9.1c1.8,0.3,3.7,0.5,5.5,0.5h58.5c5.9,0,11.7-1.5,16.9-4.4l94.1-52.5
	c1-0.5,2-1,3-1.5l27-11.9c5.5-2.4,11.6-3.4,17.5-2.7l30,3.2c4.3,0.5,8.4,1.7,12.3,3.7c22.9-4.8,45.8-9.7,68.6-14.5
	c5-2.4,10.3-5.2,15.9-8.7c4.2-2.6,8-5.2,11.4-7.8c5.2-3.1,14.1-7.5,25.9-9.3c11-1.7,20.2-0.4,25.9,0.8c0,22.1,0,44.3,0,66.5
	c0,25.6,0,51.1,0,76.7c-579.6,14.9-747.2,7.8-749.6-5.8c0,0,0-0.2,0-0.3c-0.2-1.2-0.3-4.2-0.3-31.4C3.9,318.2,4,282.4,4,258.8z"/>
<path class="st7" d="M4,389.9l107.1-36.2c1.2-0.4,2.3-0.9,3.3-1.6l38.1-23.4c4.7-2.9,10.3-3.2,15.2-0.9l45.8,21.4
	c1.1,0.5,2.3,0.9,3.5,1.2l185.1,39c1.4,0.3,2.9,0.4,4.3,0.3l71-4.7c1-0.1,2.1-0.2,3.1-0.5l101.1-27.3c0.4-0.1,0.9-0.2,1.3-0.3
	l48.9-9c3.2-0.6,6.1-2.1,8.5-4.4l64-61.9c2.2-2.1,4.9-3.6,7.7-4.3c7.1,14.3,14.2,30,20.9,47.1c8.9,22.6,15.7,43.9,20.9,63.5
	c-0.1,8.9-0.2,17.7-0.3,26.6c-0.1,14.4-0.2,28.8-0.2,43.1c-249.8-0.5-499.6-0.9-749.4-1.4C3.9,434.1,4,412,4,389.9z"/>
<path class="st8" d="M685.8,382.1l-10.3,3.2c-9,2.7-18.6,2-27.1-2.1l-14.5-7c-9.1-4.4-19.6-4.9-29.1-1.4l-54.4,20.1
	c-3.8,1.4-7.9,2.2-12,2.3l-77.6,2c-3,0.1-6,0.5-8.9,1.3l-118.7,32.7c-3.2,0.9-6.5,1.3-9.9,1.3h-58.9c-5.4,0-10.7-1.2-15.6-3.4
	l-68.3-31.5c-2.5-1.1-5-2-7.7-2.6l-82.7-18.1c-5.9-1.3-11.9-1.1-17.7,0.4L4,397.7V502c250-0.7,500-1.3,750-2
	c0-17.6-0.1-35.2-0.1-52.8c0-17.2,0-34.3,0-51.5c-6.8-2.4-14.1-4.8-21.7-7c-7.5-2.2-14.7-4-21.7-5.6
	C702.6,380,693.9,379.6,685.8,382.1z"/>
<rect x="174.4" y="91.6" transform="matrix(0.7071 -0.7071 0.7071 0.7071 -80.6487 488.5556)" class="st1" width="750" height="500"/>
<rect x="4" class="st1" width="750" height="500"/>
</svg>
