<?xml version="1.0" encoding="utf-8"?>
<!-- Generator: Adobe Illustrator 24.1.1, SVG Export Plug-In . SVG Version: 6.00 Build 0)  -->
<svg version="1.1" id="Capa_1" xmlns="http://www.w3.org/2000/svg" xmlns:xlink="http://www.w3.org/1999/xlink" x="0px" y="0px"
	 viewBox="0 0 1058 346" style="enable-background:new 0 0 1058 346;" xml:space="preserve">
<style type="text/css">
	.st0{fill:#F0F0F4;}
</style>
<path class="st0" d="M2,0h6c1.1,0,2,0.9,2,2v6c0,1.1-0.9,2-2,2H2c-1.1,0-2-0.9-2-2V2C0,0.9,0.9,0,2,0z"/>
<path class="st0" d="M30,0L30,0c2.8,0,5,2.2,5,5l0,0c0,2.8-2.2,5-5,5l0,0c-2.8,0-5-2.2-5-5l0,0C25,2.2,27.2,0,30,0z"/>
<path class="st0" d="M52,0h6c1.1,0,2,0.9,2,2v6c0,1.1-0.9,2-2,2h-6c-1.1,0-2-0.9-2-2V2C50,0.9,50.9,0,52,0z"/>
<path class="st0" d="M80,0L80,0c2.8,0,5,2.2,5,5l0,0c0,2.8-2.2,5-5,5l0,0c-2.8,0-5-2.2-5-5l0,0C75,2.2,77.2,0,80,0z"/>
<path class="st0" d="M102,0h6c1.1,0,2,0.9,2,2v6c0,1.1-0.9,2-2,2h-6c-1.1,0-2-0.9-2-2V2C100,0.9,100.9,0,102,0z"/>
<path class="st0" d="M130,0L130,0c2.8,0,5,2.2,5,5l0,0c0,2.8-2.2,5-5,5l0,0c-2.8,0-5-2.2-5-5l0,0C125,2.2,127.2,0,130,0z"/>
<path class="st0" d="M152,0h6c1.1,0,2,0.9,2,2v6c0,1.1-0.9,2-2,2h-6c-1.1,0-2-0.9-2-2V2C150,0.9,150.9,0,152,0z"/>
<path class="st0" d="M180,0L180,0c2.8,0,5,2.2,5,5l0,0c0,2.8-2.2,5-5,5l0,0c-2.8,0-5-2.2-5-5l0,0C175,2.2,177.2,0,180,0z"/>
<path class="st0" d="M202,0h6c1.1,0,2,0.9,2,2v6c0,1.1-0.9,2-2,2h-6c-1.1,0-2-0.9-2-2V2C200,0.9,200.9,0,202,0z"/>
<path class="st0" d="M230,0L230,0c2.8,0,5,2.2,5,5l0,0c0,2.8-2.2,5-5,5l0,0c-2.8,0-5-2.2-5-5l0,0C225,2.2,227.2,0,230,0z"/>
<path class="st0" d="M252,0h6c1.1,0,2,0.9,2,2v6c0,1.1-0.9,2-2,2h-6c-1.1,0-2-0.9-2-2V2C250,0.9,250.9,0,252,0z"/>
<path class="st0" d="M280,0L280,0c2.8,0,5,2.2,5,5l0,0c0,2.8-2.2,5-5,5l0,0c-2.8,0-5-2.2-5-5l0,0C275,2.2,277.2,0,280,0z"/>
<path class="st0" d="M302,0h6c1.1,0,2,0.9,2,2v6c0,1.1-0.9,2-2,2h-6c-1.1,0-2-0.9-2-2V2C300,0.9,300.9,0,302,0z"/>
<path class="st0" d="M330,0L330,0c2.8,0,5,2.2,5,5l0,0c0,2.8-2.2,5-5,5l0,0c-2.8,0-5-2.2-5-5l0,0C325,2.2,327.2,0,330,0z"/>
<path class="st0" d="M352,0h6c1.1,0,2,0.9,2,2v6c0,1.1-0.9,2-2,2h-6c-1.1,0-2-0.9-2-2V2C350,0.9,350.9,0,352,0z"/>
<path class="st0" d="M380,0L380,0c2.8,0,5,2.2,5,5l0,0c0,2.8-2.2,5-5,5l0,0c-2.8,0-5-2.2-5-5l0,0C375,2.2,377.2,0,380,0z"/>
<path class="st0" d="M402,0h6c1.1,0,2,0.9,2,2v6c0,1.1-0.9,2-2,2h-6c-1.1,0-2-0.9-2-2V2C400,0.9,400.9,0,402,0z"/>
<path class="st0" d="M430,0L430,0c2.8,0,5,2.2,5,5l0,0c0,2.8-2.2,5-5,5l0,0c-2.8,0-5-2.2-5-5l0,0C425,2.2,427.2,0,430,0z"/>
<path class="st0" d="M452,0h6c1.1,0,2,0.9,2,2v6c0,1.1-0.9,2-2,2h-6c-1.1,0-2-0.9-2-2V2C450,0.9,450.9,0,452,0z"/>
<path class="st0" d="M480,0L480,0c2.8,0,5,2.2,5,5l0,0c0,2.8-2.2,5-5,5l0,0c-2.8,0-5-2.2-5-5l0,0C475,2.2,477.2,0,480,0z"/>
<path class="st0" d="M502,0h6c1.1,0,2,0.9,2,2v6c0,1.1-0.9,2-2,2h-6c-1.1,0-2-0.9-2-2V2C500,0.9,500.9,0,502,0z"/>
<path class="st0" d="M530,0L530,0c2.8,0,5,2.2,5,5l0,0c0,2.8-2.2,5-5,5l0,0c-2.8,0-5-2.2-5-5l0,0C525,2.2,527.2,0,530,0z"/>
<path class="st0" d="M552,0h6c1.1,0,2,0.9,2,2v6c0,1.1-0.9,2-2,2h-6c-1.1,0-2-0.9-2-2V2C550,0.9,550.9,0,552,0z"/>
<path class="st0" d="M580,0L580,0c2.8,0,5,2.2,5,5l0,0c0,2.8-2.2,5-5,5l0,0c-2.8,0-5-2.2-5-5l0,0C575,2.2,577.2,0,580,0z"/>
<path class="st0" d="M602,0h6c1.1,0,2,0.9,2,2v6c0,1.1-0.9,2-2,2h-6c-1.1,0-2-0.9-2-2V2C600,0.9,600.9,0,602,0z"/>
<path class="st0" d="M630,0L630,0c2.8,0,5,2.2,5,5l0,0c0,2.8-2.2,5-5,5l0,0c-2.8,0-5-2.2-5-5l0,0C625,2.2,627.2,0,630,0z"/>
<path class="st0" d="M652,0h6c1.1,0,2,0.9,2,2v6c0,1.1-0.9,2-2,2h-6c-1.1,0-2-0.9-2-2V2C650,0.9,650.9,0,652,0z"/>
<path class="st0" d="M680,0L680,0c2.8,0,5,2.2,5,5l0,0c0,2.8-2.2,5-5,5l0,0c-2.8,0-5-2.2-5-5l0,0C675,2.2,677.2,0,680,0z"/>
<path class="st0" d="M702,0h6c1.1,0,2,0.9,2,2v6c0,1.1-0.9,2-2,2h-6c-1.1,0-2-0.9-2-2V2C700,0.9,700.9,0,702,0z"/>
<path class="st0" d="M730,0L730,0c2.8,0,5,2.2,5,5l0,0c0,2.8-2.2,5-5,5l0,0c-2.8,0-5-2.2-5-5l0,0C725,2.2,727.2,0,730,0z"/>
<path class="st0" d="M752,0h6c1.1,0,2,0.9,2,2v6c0,1.1-0.9,2-2,2h-6c-1.1,0-2-0.9-2-2V2C750,0.9,750.9,0,752,0z"/>
<path class="st0" d="M780,0L780,0c2.8,0,5,2.2,5,5l0,0c0,2.8-2.2,5-5,5l0,0c-2.8,0-5-2.2-5-5l0,0C775,2.2,777.2,0,780,0z"/>
<path class="st0" d="M802,0h6c1.1,0,2,0.9,2,2v6c0,1.1-0.9,2-2,2h-6c-1.1,0-2-0.9-2-2V2C800,0.9,800.9,0,802,0z"/>
<path class="st0" d="M830,0L830,0c2.8,0,5,2.2,5,5l0,0c0,2.8-2.2,5-5,5l0,0c-2.8,0-5-2.2-5-5l0,0C825,2.2,827.2,0,830,0z"/>
<path class="st0" d="M852,0h6c1.1,0,2,0.9,2,2v6c0,1.1-0.9,2-2,2h-6c-1.1,0-2-0.9-2-2V2C850,0.9,850.9,0,852,0z"/>
<path class="st0" d="M880,0L880,0c2.8,0,5,2.2,5,5l0,0c0,2.8-2.2,5-5,5l0,0c-2.8,0-5-2.2-5-5l0,0C875,2.2,877.2,0,880,0z"/>
<path class="st0" d="M902,0h6c1.1,0,2,0.9,2,2v6c0,1.1-0.9,2-2,2h-6c-1.1,0-2-0.9-2-2V2C900,0.9,900.9,0,902,0z"/>
<path class="st0" d="M930,0L930,0c2.8,0,5,2.2,5,5l0,0c0,2.8-2.2,5-5,5l0,0c-2.8,0-5-2.2-5-5l0,0C925,2.2,927.2,0,930,0z"/>
<path class="st0" d="M952,0h6c1.1,0,2,0.9,2,2v6c0,1.1-0.9,2-2,2h-6c-1.1,0-2-0.9-2-2V2C950,0.9,950.9,0,952,0z"/>
<path class="st0" d="M980,0L980,0c2.8,0,5,2.2,5,5l0,0c0,2.8-2.2,5-5,5l0,0c-2.8,0-5-2.2-5-5l0,0C975,2.2,977.2,0,980,0z"/>
<path class="st0" d="M1002,0h6c1.1,0,2,0.9,2,2v6c0,1.1-0.9,2-2,2h-6c-1.1,0-2-0.9-2-2V2C1000,0.9,1000.9,0,1002,0z"/>
<path class="st0" d="M1030,0L1030,0c2.8,0,5,2.2,5,5l0,0c0,2.8-2.2,5-5,5l0,0c-2.8,0-5-2.2-5-5l0,0C1025,2.2,1027.2,0,1030,0z"/>
<path class="st0" d="M1052,0h6c1.1,0,2,0.9,2,2v6c0,1.1-0.9,2-2,2h-6c-1.1,0-2-0.9-2-2V2C1050,0.9,1050.9,0,1052,0z"/>
<path class="st0" d="M14,25h6c1.1,0,2,0.9,2,2v6c0,1.1-0.9,2-2,2h-6c-1.1,0-2-0.9-2-2v-6C12,25.9,12.9,25,14,25z"/>
<path class="st0" d="M42,25L42,25c2.8,0,5,2.2,5,5l0,0c0,2.8-2.2,5-5,5l0,0c-2.8,0-5-2.2-5-5l0,0C37,27.2,39.2,25,42,25z"/>
<path class="st0" d="M64,25h6c1.1,0,2,0.9,2,2v6c0,1.1-0.9,2-2,2h-6c-1.1,0-2-0.9-2-2v-6C62,25.9,62.9,25,64,25z"/>
<path class="st0" d="M92,25L92,25c2.8,0,5,2.2,5,5l0,0c0,2.8-2.2,5-5,5l0,0c-2.8,0-5-2.2-5-5l0,0C87,27.2,89.2,25,92,25z"/>
<path class="st0" d="M114,25h6c1.1,0,2,0.9,2,2v6c0,1.1-0.9,2-2,2h-6c-1.1,0-2-0.9-2-2v-6C112,25.9,112.9,25,114,25z"/>
<path class="st0" d="M142,25L142,25c2.8,0,5,2.2,5,5l0,0c0,2.8-2.2,5-5,5l0,0c-2.8,0-5-2.2-5-5l0,0C137,27.2,139.2,25,142,25z"/>
<path class="st0" d="M164,25h6c1.1,0,2,0.9,2,2v6c0,1.1-0.9,2-2,2h-6c-1.1,0-2-0.9-2-2v-6C162,25.9,162.9,25,164,25z"/>
<path class="st0" d="M192,25L192,25c2.8,0,5,2.2,5,5l0,0c0,2.8-2.2,5-5,5l0,0c-2.8,0-5-2.2-5-5l0,0C187,27.2,189.2,25,192,25z"/>
<path class="st0" d="M214,25h6c1.1,0,2,0.9,2,2v6c0,1.1-0.9,2-2,2h-6c-1.1,0-2-0.9-2-2v-6C212,25.9,212.9,25,214,25z"/>
<path class="st0" d="M242,25L242,25c2.8,0,5,2.2,5,5l0,0c0,2.8-2.2,5-5,5l0,0c-2.8,0-5-2.2-5-5l0,0C237,27.2,239.2,25,242,25z"/>
<path class="st0" d="M264,25h6c1.1,0,2,0.9,2,2v6c0,1.1-0.9,2-2,2h-6c-1.1,0-2-0.9-2-2v-6C262,25.9,262.9,25,264,25z"/>
<path class="st0" d="M292,25L292,25c2.8,0,5,2.2,5,5l0,0c0,2.8-2.2,5-5,5l0,0c-2.8,0-5-2.2-5-5l0,0C287,27.2,289.2,25,292,25z"/>
<path class="st0" d="M314,25h6c1.1,0,2,0.9,2,2v6c0,1.1-0.9,2-2,2h-6c-1.1,0-2-0.9-2-2v-6C312,25.9,312.9,25,314,25z"/>
<path class="st0" d="M342,25L342,25c2.8,0,5,2.2,5,5l0,0c0,2.8-2.2,5-5,5l0,0c-2.8,0-5-2.2-5-5l0,0C337,27.2,339.2,25,342,25z"/>
<path class="st0" d="M364,25h6c1.1,0,2,0.9,2,2v6c0,1.1-0.9,2-2,2h-6c-1.1,0-2-0.9-2-2v-6C362,25.9,362.9,25,364,25z"/>
<path class="st0" d="M392,25L392,25c2.8,0,5,2.2,5,5l0,0c0,2.8-2.2,5-5,5l0,0c-2.8,0-5-2.2-5-5l0,0C387,27.2,389.2,25,392,25z"/>
<path class="st0" d="M414,25h6c1.1,0,2,0.9,2,2v6c0,1.1-0.9,2-2,2h-6c-1.1,0-2-0.9-2-2v-6C412,25.9,412.9,25,414,25z"/>
<path class="st0" d="M442,25L442,25c2.8,0,5,2.2,5,5l0,0c0,2.8-2.2,5-5,5l0,0c-2.8,0-5-2.2-5-5l0,0C437,27.2,439.2,25,442,25z"/>
<path class="st0" d="M464,25h6c1.1,0,2,0.9,2,2v6c0,1.1-0.9,2-2,2h-6c-1.1,0-2-0.9-2-2v-6C462,25.9,462.9,25,464,25z"/>
<path class="st0" d="M492,25L492,25c2.8,0,5,2.2,5,5l0,0c0,2.8-2.2,5-5,5l0,0c-2.8,0-5-2.2-5-5l0,0C487,27.2,489.2,25,492,25z"/>
<path class="st0" d="M514,25h6c1.1,0,2,0.9,2,2v6c0,1.1-0.9,2-2,2h-6c-1.1,0-2-0.9-2-2v-6C512,25.9,512.9,25,514,25z"/>
<path class="st0" d="M542,25L542,25c2.8,0,5,2.2,5,5l0,0c0,2.8-2.2,5-5,5l0,0c-2.8,0-5-2.2-5-5l0,0C537,27.2,539.2,25,542,25z"/>
<path class="st0" d="M564,25h6c1.1,0,2,0.9,2,2v6c0,1.1-0.9,2-2,2h-6c-1.1,0-2-0.9-2-2v-6C562,25.9,562.9,25,564,25z"/>
<path class="st0" d="M592,25L592,25c2.8,0,5,2.2,5,5l0,0c0,2.8-2.2,5-5,5l0,0c-2.8,0-5-2.2-5-5l0,0C587,27.2,589.2,25,592,25z"/>
<path class="st0" d="M614,25h6c1.1,0,2,0.9,2,2v6c0,1.1-0.9,2-2,2h-6c-1.1,0-2-0.9-2-2v-6C612,25.9,612.9,25,614,25z"/>
<path class="st0" d="M642,25L642,25c2.8,0,5,2.2,5,5l0,0c0,2.8-2.2,5-5,5l0,0c-2.8,0-5-2.2-5-5l0,0C637,27.2,639.2,25,642,25z"/>
<path class="st0" d="M664,25h6c1.1,0,2,0.9,2,2v6c0,1.1-0.9,2-2,2h-6c-1.1,0-2-0.9-2-2v-6C662,25.9,662.9,25,664,25z"/>
<path class="st0" d="M692,25L692,25c2.8,0,5,2.2,5,5l0,0c0,2.8-2.2,5-5,5l0,0c-2.8,0-5-2.2-5-5l0,0C687,27.2,689.2,25,692,25z"/>
<path class="st0" d="M714,25h6c1.1,0,2,0.9,2,2v6c0,1.1-0.9,2-2,2h-6c-1.1,0-2-0.9-2-2v-6C712,25.9,712.9,25,714,25z"/>
<path class="st0" d="M742,25L742,25c2.8,0,5,2.2,5,5l0,0c0,2.8-2.2,5-5,5l0,0c-2.8,0-5-2.2-5-5l0,0C737,27.2,739.2,25,742,25z"/>
<path class="st0" d="M764,25h6c1.1,0,2,0.9,2,2v6c0,1.1-0.9,2-2,2h-6c-1.1,0-2-0.9-2-2v-6C762,25.9,762.9,25,764,25z"/>
<path class="st0" d="M792,25L792,25c2.8,0,5,2.2,5,5l0,0c0,2.8-2.2,5-5,5l0,0c-2.8,0-5-2.2-5-5l0,0C787,27.2,789.2,25,792,25z"/>
<path class="st0" d="M814,25h6c1.1,0,2,0.9,2,2v6c0,1.1-0.9,2-2,2h-6c-1.1,0-2-0.9-2-2v-6C812,25.9,812.9,25,814,25z"/>
<path class="st0" d="M842,25L842,25c2.8,0,5,2.2,5,5l0,0c0,2.8-2.2,5-5,5l0,0c-2.8,0-5-2.2-5-5l0,0C837,27.2,839.2,25,842,25z"/>
<path class="st0" d="M864,25h6c1.1,0,2,0.9,2,2v6c0,1.1-0.9,2-2,2h-6c-1.1,0-2-0.9-2-2v-6C862,25.9,862.9,25,864,25z"/>
<path class="st0" d="M892,25L892,25c2.8,0,5,2.2,5,5l0,0c0,2.8-2.2,5-5,5l0,0c-2.8,0-5-2.2-5-5l0,0C887,27.2,889.2,25,892,25z"/>
<path class="st0" d="M914,25h6c1.1,0,2,0.9,2,2v6c0,1.1-0.9,2-2,2h-6c-1.1,0-2-0.9-2-2v-6C912,25.9,912.9,25,914,25z"/>
<path class="st0" d="M942,25L942,25c2.8,0,5,2.2,5,5l0,0c0,2.8-2.2,5-5,5l0,0c-2.8,0-5-2.2-5-5l0,0C937,27.2,939.2,25,942,25z"/>
<path class="st0" d="M964,25h6c1.1,0,2,0.9,2,2v6c0,1.1-0.9,2-2,2h-6c-1.1,0-2-0.9-2-2v-6C962,25.9,962.9,25,964,25z"/>
<path class="st0" d="M992,25L992,25c2.8,0,5,2.2,5,5l0,0c0,2.8-2.2,5-5,5l0,0c-2.8,0-5-2.2-5-5l0,0C987,27.2,989.2,25,992,25z"/>
<path class="st0" d="M1014,25h6c1.1,0,2,0.9,2,2v6c0,1.1-0.9,2-2,2h-6c-1.1,0-2-0.9-2-2v-6C1012,25.9,1012.9,25,1014,25z"/>
<path class="st0" d="M1042,25L1042,25c2.8,0,5,2.2,5,5l0,0c0,2.8-2.2,5-5,5l0,0c-2.8,0-5-2.2-5-5l0,0C1037,27.2,1039.2,25,1042,25z"
	/>
<path class="st0" d="M2,50h6c1.1,0,2,0.9,2,2v6c0,1.1-0.9,2-2,2H2c-1.1,0-2-0.9-2-2v-6C0,50.9,0.9,50,2,50z"/>
<path class="st0" d="M30,50L30,50c2.8,0,5,2.2,5,5l0,0c0,2.8-2.2,5-5,5l0,0c-2.8,0-5-2.2-5-5l0,0C25,52.2,27.2,50,30,50z"/>
<path class="st0" d="M52,50h6c1.1,0,2,0.9,2,2v6c0,1.1-0.9,2-2,2h-6c-1.1,0-2-0.9-2-2v-6C50,50.9,50.9,50,52,50z"/>
<path class="st0" d="M80,50L80,50c2.8,0,5,2.2,5,5l0,0c0,2.8-2.2,5-5,5l0,0c-2.8,0-5-2.2-5-5l0,0C75,52.2,77.2,50,80,50z"/>
<path class="st0" d="M102,50h6c1.1,0,2,0.9,2,2v6c0,1.1-0.9,2-2,2h-6c-1.1,0-2-0.9-2-2v-6C100,50.9,100.9,50,102,50z"/>
<path class="st0" d="M130,50L130,50c2.8,0,5,2.2,5,5l0,0c0,2.8-2.2,5-5,5l0,0c-2.8,0-5-2.2-5-5l0,0C125,52.2,127.2,50,130,50z"/>
<path class="st0" d="M152,50h6c1.1,0,2,0.9,2,2v6c0,1.1-0.9,2-2,2h-6c-1.1,0-2-0.9-2-2v-6C150,50.9,150.9,50,152,50z"/>
<path class="st0" d="M180,50L180,50c2.8,0,5,2.2,5,5l0,0c0,2.8-2.2,5-5,5l0,0c-2.8,0-5-2.2-5-5l0,0C175,52.2,177.2,50,180,50z"/>
<path class="st0" d="M202,50h6c1.1,0,2,0.9,2,2v6c0,1.1-0.9,2-2,2h-6c-1.1,0-2-0.9-2-2v-6C200,50.9,200.9,50,202,50z"/>
<path class="st0" d="M230,50L230,50c2.8,0,5,2.2,5,5l0,0c0,2.8-2.2,5-5,5l0,0c-2.8,0-5-2.2-5-5l0,0C225,52.2,227.2,50,230,50z"/>
<path class="st0" d="M252,50h6c1.1,0,2,0.9,2,2v6c0,1.1-0.9,2-2,2h-6c-1.1,0-2-0.9-2-2v-6C250,50.9,250.9,50,252,50z"/>
<path class="st0" d="M280,50L280,50c2.8,0,5,2.2,5,5l0,0c0,2.8-2.2,5-5,5l0,0c-2.8,0-5-2.2-5-5l0,0C275,52.2,277.2,50,280,50z"/>
<path class="st0" d="M302,50h6c1.1,0,2,0.9,2,2v6c0,1.1-0.9,2-2,2h-6c-1.1,0-2-0.9-2-2v-6C300,50.9,300.9,50,302,50z"/>
<path class="st0" d="M330,50L330,50c2.8,0,5,2.2,5,5l0,0c0,2.8-2.2,5-5,5l0,0c-2.8,0-5-2.2-5-5l0,0C325,52.2,327.2,50,330,50z"/>
<path class="st0" d="M352,50h6c1.1,0,2,0.9,2,2v6c0,1.1-0.9,2-2,2h-6c-1.1,0-2-0.9-2-2v-6C350,50.9,350.9,50,352,50z"/>
<path class="st0" d="M380,50L380,50c2.8,0,5,2.2,5,5l0,0c0,2.8-2.2,5-5,5l0,0c-2.8,0-5-2.2-5-5l0,0C375,52.2,377.2,50,380,50z"/>
<path class="st0" d="M402,50h6c1.1,0,2,0.9,2,2v6c0,1.1-0.9,2-2,2h-6c-1.1,0-2-0.9-2-2v-6C400,50.9,400.9,50,402,50z"/>
<path class="st0" d="M430,50L430,50c2.8,0,5,2.2,5,5l0,0c0,2.8-2.2,5-5,5l0,0c-2.8,0-5-2.2-5-5l0,0C425,52.2,427.2,50,430,50z"/>
<path class="st0" d="M452,50h6c1.1,0,2,0.9,2,2v6c0,1.1-0.9,2-2,2h-6c-1.1,0-2-0.9-2-2v-6C450,50.9,450.9,50,452,50z"/>
<path class="st0" d="M480,50L480,50c2.8,0,5,2.2,5,5l0,0c0,2.8-2.2,5-5,5l0,0c-2.8,0-5-2.2-5-5l0,0C475,52.2,477.2,50,480,50z"/>
<path class="st0" d="M502,50h6c1.1,0,2,0.9,2,2v6c0,1.1-0.9,2-2,2h-6c-1.1,0-2-0.9-2-2v-6C500,50.9,500.9,50,502,50z"/>
<path class="st0" d="M530,50L530,50c2.8,0,5,2.2,5,5l0,0c0,2.8-2.2,5-5,5l0,0c-2.8,0-5-2.2-5-5l0,0C525,52.2,527.2,50,530,50z"/>
<path class="st0" d="M552,50h6c1.1,0,2,0.9,2,2v6c0,1.1-0.9,2-2,2h-6c-1.1,0-2-0.9-2-2v-6C550,50.9,550.9,50,552,50z"/>
<path class="st0" d="M580,50L580,50c2.8,0,5,2.2,5,5l0,0c0,2.8-2.2,5-5,5l0,0c-2.8,0-5-2.2-5-5l0,0C575,52.2,577.2,50,580,50z"/>
<path class="st0" d="M602,50h6c1.1,0,2,0.9,2,2v6c0,1.1-0.9,2-2,2h-6c-1.1,0-2-0.9-2-2v-6C600,50.9,600.9,50,602,50z"/>
<path class="st0" d="M630,50L630,50c2.8,0,5,2.2,5,5l0,0c0,2.8-2.2,5-5,5l0,0c-2.8,0-5-2.2-5-5l0,0C625,52.2,627.2,50,630,50z"/>
<path class="st0" d="M652,50h6c1.1,0,2,0.9,2,2v6c0,1.1-0.9,2-2,2h-6c-1.1,0-2-0.9-2-2v-6C650,50.9,650.9,50,652,50z"/>
<path class="st0" d="M680,50L680,50c2.8,0,5,2.2,5,5l0,0c0,2.8-2.2,5-5,5l0,0c-2.8,0-5-2.2-5-5l0,0C675,52.2,677.2,50,680,50z"/>
<path class="st0" d="M702,50h6c1.1,0,2,0.9,2,2v6c0,1.1-0.9,2-2,2h-6c-1.1,0-2-0.9-2-2v-6C700,50.9,700.9,50,702,50z"/>
<path class="st0" d="M730,50L730,50c2.8,0,5,2.2,5,5l0,0c0,2.8-2.2,5-5,5l0,0c-2.8,0-5-2.2-5-5l0,0C725,52.2,727.2,50,730,50z"/>
<path class="st0" d="M752,50h6c1.1,0,2,0.9,2,2v6c0,1.1-0.9,2-2,2h-6c-1.1,0-2-0.9-2-2v-6C750,50.9,750.9,50,752,50z"/>
<path class="st0" d="M780,50L780,50c2.8,0,5,2.2,5,5l0,0c0,2.8-2.2,5-5,5l0,0c-2.8,0-5-2.2-5-5l0,0C775,52.2,777.2,50,780,50z"/>
<path class="st0" d="M802,50h6c1.1,0,2,0.9,2,2v6c0,1.1-0.9,2-2,2h-6c-1.1,0-2-0.9-2-2v-6C800,50.9,800.9,50,802,50z"/>
<path class="st0" d="M830,50L830,50c2.8,0,5,2.2,5,5l0,0c0,2.8-2.2,5-5,5l0,0c-2.8,0-5-2.2-5-5l0,0C825,52.2,827.2,50,830,50z"/>
<path class="st0" d="M852,50h6c1.1,0,2,0.9,2,2v6c0,1.1-0.9,2-2,2h-6c-1.1,0-2-0.9-2-2v-6C850,50.9,850.9,50,852,50z"/>
<path class="st0" d="M880,50L880,50c2.8,0,5,2.2,5,5l0,0c0,2.8-2.2,5-5,5l0,0c-2.8,0-5-2.2-5-5l0,0C875,52.2,877.2,50,880,50z"/>
<path class="st0" d="M902,50h6c1.1,0,2,0.9,2,2v6c0,1.1-0.9,2-2,2h-6c-1.1,0-2-0.9-2-2v-6C900,50.9,900.9,50,902,50z"/>
<path class="st0" d="M930,50L930,50c2.8,0,5,2.2,5,5l0,0c0,2.8-2.2,5-5,5l0,0c-2.8,0-5-2.2-5-5l0,0C925,52.2,927.2,50,930,50z"/>
<path class="st0" d="M952,50h6c1.1,0,2,0.9,2,2v6c0,1.1-0.9,2-2,2h-6c-1.1,0-2-0.9-2-2v-6C950,50.9,950.9,50,952,50z"/>
<path class="st0" d="M980,50L980,50c2.8,0,5,2.2,5,5l0,0c0,2.8-2.2,5-5,5l0,0c-2.8,0-5-2.2-5-5l0,0C975,52.2,977.2,50,980,50z"/>
<path class="st0" d="M1002,50h6c1.1,0,2,0.9,2,2v6c0,1.1-0.9,2-2,2h-6c-1.1,0-2-0.9-2-2v-6C1000,50.9,1000.9,50,1002,50z"/>
<path class="st0" d="M1030,50L1030,50c2.8,0,5,2.2,5,5l0,0c0,2.8-2.2,5-5,5l0,0c-2.8,0-5-2.2-5-5l0,0C1025,52.2,1027.2,50,1030,50z"
	/>
<path class="st0" d="M1052,50h6c1.1,0,2,0.9,2,2v6c0,1.1-0.9,2-2,2h-6c-1.1,0-2-0.9-2-2v-6C1050,50.9,1050.9,50,1052,50z"/>
<path class="st0" d="M14,75h6c1.1,0,2,0.9,2,2v6c0,1.1-0.9,2-2,2h-6c-1.1,0-2-0.9-2-2v-6C12,75.9,12.9,75,14,75z"/>
<path class="st0" d="M42,75L42,75c2.8,0,5,2.2,5,5l0,0c0,2.8-2.2,5-5,5l0,0c-2.8,0-5-2.2-5-5l0,0C37,77.2,39.2,75,42,75z"/>
<path class="st0" d="M64,75h6c1.1,0,2,0.9,2,2v6c0,1.1-0.9,2-2,2h-6c-1.1,0-2-0.9-2-2v-6C62,75.9,62.9,75,64,75z"/>
<path class="st0" d="M92,75L92,75c2.8,0,5,2.2,5,5l0,0c0,2.8-2.2,5-5,5l0,0c-2.8,0-5-2.2-5-5l0,0C87,77.2,89.2,75,92,75z"/>
<path class="st0" d="M114,75h6c1.1,0,2,0.9,2,2v6c0,1.1-0.9,2-2,2h-6c-1.1,0-2-0.9-2-2v-6C112,75.9,112.9,75,114,75z"/>
<path class="st0" d="M142,75L142,75c2.8,0,5,2.2,5,5l0,0c0,2.8-2.2,5-5,5l0,0c-2.8,0-5-2.2-5-5l0,0C137,77.2,139.2,75,142,75z"/>
<path class="st0" d="M164,75h6c1.1,0,2,0.9,2,2v6c0,1.1-0.9,2-2,2h-6c-1.1,0-2-0.9-2-2v-6C162,75.9,162.9,75,164,75z"/>
<path class="st0" d="M192,75L192,75c2.8,0,5,2.2,5,5l0,0c0,2.8-2.2,5-5,5l0,0c-2.8,0-5-2.2-5-5l0,0C187,77.2,189.2,75,192,75z"/>
<path class="st0" d="M214,75h6c1.1,0,2,0.9,2,2v6c0,1.1-0.9,2-2,2h-6c-1.1,0-2-0.9-2-2v-6C212,75.9,212.9,75,214,75z"/>
<path class="st0" d="M242,75L242,75c2.8,0,5,2.2,5,5l0,0c0,2.8-2.2,5-5,5l0,0c-2.8,0-5-2.2-5-5l0,0C237,77.2,239.2,75,242,75z"/>
<path class="st0" d="M264,75h6c1.1,0,2,0.9,2,2v6c0,1.1-0.9,2-2,2h-6c-1.1,0-2-0.9-2-2v-6C262,75.9,262.9,75,264,75z"/>
<path class="st0" d="M292,75L292,75c2.8,0,5,2.2,5,5l0,0c0,2.8-2.2,5-5,5l0,0c-2.8,0-5-2.2-5-5l0,0C287,77.2,289.2,75,292,75z"/>
<path class="st0" d="M314,75h6c1.1,0,2,0.9,2,2v6c0,1.1-0.9,2-2,2h-6c-1.1,0-2-0.9-2-2v-6C312,75.9,312.9,75,314,75z"/>
<path class="st0" d="M342,75L342,75c2.8,0,5,2.2,5,5l0,0c0,2.8-2.2,5-5,5l0,0c-2.8,0-5-2.2-5-5l0,0C337,77.2,339.2,75,342,75z"/>
<path class="st0" d="M364,75h6c1.1,0,2,0.9,2,2v6c0,1.1-0.9,2-2,2h-6c-1.1,0-2-0.9-2-2v-6C362,75.9,362.9,75,364,75z"/>
<path class="st0" d="M392,75L392,75c2.8,0,5,2.2,5,5l0,0c0,2.8-2.2,5-5,5l0,0c-2.8,0-5-2.2-5-5l0,0C387,77.2,389.2,75,392,75z"/>
<path class="st0" d="M414,75h6c1.1,0,2,0.9,2,2v6c0,1.1-0.9,2-2,2h-6c-1.1,0-2-0.9-2-2v-6C412,75.9,412.9,75,414,75z"/>
<path class="st0" d="M442,75L442,75c2.8,0,5,2.2,5,5l0,0c0,2.8-2.2,5-5,5l0,0c-2.8,0-5-2.2-5-5l0,0C437,77.2,439.2,75,442,75z"/>
<path class="st0" d="M464,75h6c1.1,0,2,0.9,2,2v6c0,1.1-0.9,2-2,2h-6c-1.1,0-2-0.9-2-2v-6C462,75.9,462.9,75,464,75z"/>
<path class="st0" d="M492,75L492,75c2.8,0,5,2.2,5,5l0,0c0,2.8-2.2,5-5,5l0,0c-2.8,0-5-2.2-5-5l0,0C487,77.2,489.2,75,492,75z"/>
<path class="st0" d="M514,75h6c1.1,0,2,0.9,2,2v6c0,1.1-0.9,2-2,2h-6c-1.1,0-2-0.9-2-2v-6C512,75.9,512.9,75,514,75z"/>
<path class="st0" d="M542,75L542,75c2.8,0,5,2.2,5,5l0,0c0,2.8-2.2,5-5,5l0,0c-2.8,0-5-2.2-5-5l0,0C537,77.2,539.2,75,542,75z"/>
<path class="st0" d="M564,75h6c1.1,0,2,0.9,2,2v6c0,1.1-0.9,2-2,2h-6c-1.1,0-2-0.9-2-2v-6C562,75.9,562.9,75,564,75z"/>
<path class="st0" d="M592,75L592,75c2.8,0,5,2.2,5,5l0,0c0,2.8-2.2,5-5,5l0,0c-2.8,0-5-2.2-5-5l0,0C587,77.2,589.2,75,592,75z"/>
<path class="st0" d="M614,75h6c1.1,0,2,0.9,2,2v6c0,1.1-0.9,2-2,2h-6c-1.1,0-2-0.9-2-2v-6C612,75.9,612.9,75,614,75z"/>
<path class="st0" d="M642,75L642,75c2.8,0,5,2.2,5,5l0,0c0,2.8-2.2,5-5,5l0,0c-2.8,0-5-2.2-5-5l0,0C637,77.2,639.2,75,642,75z"/>
<path class="st0" d="M664,75h6c1.1,0,2,0.9,2,2v6c0,1.1-0.9,2-2,2h-6c-1.1,0-2-0.9-2-2v-6C662,75.9,662.9,75,664,75z"/>
<path class="st0" d="M692,75L692,75c2.8,0,5,2.2,5,5l0,0c0,2.8-2.2,5-5,5l0,0c-2.8,0-5-2.2-5-5l0,0C687,77.2,689.2,75,692,75z"/>
<path class="st0" d="M714,75h6c1.1,0,2,0.9,2,2v6c0,1.1-0.9,2-2,2h-6c-1.1,0-2-0.9-2-2v-6C712,75.9,712.9,75,714,75z"/>
<path class="st0" d="M742,75L742,75c2.8,0,5,2.2,5,5l0,0c0,2.8-2.2,5-5,5l0,0c-2.8,0-5-2.2-5-5l0,0C737,77.2,739.2,75,742,75z"/>
<path class="st0" d="M764,75h6c1.1,0,2,0.9,2,2v6c0,1.1-0.9,2-2,2h-6c-1.1,0-2-0.9-2-2v-6C762,75.9,762.9,75,764,75z"/>
<path class="st0" d="M792,75L792,75c2.8,0,5,2.2,5,5l0,0c0,2.8-2.2,5-5,5l0,0c-2.8,0-5-2.2-5-5l0,0C787,77.2,789.2,75,792,75z"/>
<path class="st0" d="M814,75h6c1.1,0,2,0.9,2,2v6c0,1.1-0.9,2-2,2h-6c-1.1,0-2-0.9-2-2v-6C812,75.9,812.9,75,814,75z"/>
<path class="st0" d="M842,75L842,75c2.8,0,5,2.2,5,5l0,0c0,2.8-2.2,5-5,5l0,0c-2.8,0-5-2.2-5-5l0,0C837,77.2,839.2,75,842,75z"/>
<path class="st0" d="M864,75h6c1.1,0,2,0.9,2,2v6c0,1.1-0.9,2-2,2h-6c-1.1,0-2-0.9-2-2v-6C862,75.9,862.9,75,864,75z"/>
<path class="st0" d="M892,75L892,75c2.8,0,5,2.2,5,5l0,0c0,2.8-2.2,5-5,5l0,0c-2.8,0-5-2.2-5-5l0,0C887,77.2,889.2,75,892,75z"/>
<path class="st0" d="M914,75h6c1.1,0,2,0.9,2,2v6c0,1.1-0.9,2-2,2h-6c-1.1,0-2-0.9-2-2v-6C912,75.9,912.9,75,914,75z"/>
<path class="st0" d="M942,75L942,75c2.8,0,5,2.2,5,5l0,0c0,2.8-2.2,5-5,5l0,0c-2.8,0-5-2.2-5-5l0,0C937,77.2,939.2,75,942,75z"/>
<path class="st0" d="M964,75h6c1.1,0,2,0.9,2,2v6c0,1.1-0.9,2-2,2h-6c-1.1,0-2-0.9-2-2v-6C962,75.9,962.9,75,964,75z"/>
<path class="st0" d="M992,75L992,75c2.8,0,5,2.2,5,5l0,0c0,2.8-2.2,5-5,5l0,0c-2.8,0-5-2.2-5-5l0,0C987,77.2,989.2,75,992,75z"/>
<path class="st0" d="M1014,75h6c1.1,0,2,0.9,2,2v6c0,1.1-0.9,2-2,2h-6c-1.1,0-2-0.9-2-2v-6C1012,75.9,1012.9,75,1014,75z"/>
<path class="st0" d="M1042,75L1042,75c2.8,0,5,2.2,5,5l0,0c0,2.8-2.2,5-5,5l0,0c-2.8,0-5-2.2-5-5l0,0C1037,77.2,1039.2,75,1042,75z"
	/>
<path class="st0" d="M2,100h6c1.1,0,2,0.9,2,2v6c0,1.1-0.9,2-2,2H2c-1.1,0-2-0.9-2-2v-6C0,100.9,0.9,100,2,100z"/>
<path class="st0" d="M30,100L30,100c2.8,0,5,2.2,5,5l0,0c0,2.8-2.2,5-5,5l0,0c-2.8,0-5-2.2-5-5l0,0C25,102.2,27.2,100,30,100z"/>
<path class="st0" d="M52,100h6c1.1,0,2,0.9,2,2v6c0,1.1-0.9,2-2,2h-6c-1.1,0-2-0.9-2-2v-6C50,100.9,50.9,100,52,100z"/>
<path class="st0" d="M80,100L80,100c2.8,0,5,2.2,5,5l0,0c0,2.8-2.2,5-5,5l0,0c-2.8,0-5-2.2-5-5l0,0C75,102.2,77.2,100,80,100z"/>
<path class="st0" d="M102,100h6c1.1,0,2,0.9,2,2v6c0,1.1-0.9,2-2,2h-6c-1.1,0-2-0.9-2-2v-6C100,100.9,100.9,100,102,100z"/>
<path class="st0" d="M130,100L130,100c2.8,0,5,2.2,5,5l0,0c0,2.8-2.2,5-5,5l0,0c-2.8,0-5-2.2-5-5l0,0C125,102.2,127.2,100,130,100z"
	/>
<path class="st0" d="M152,100h6c1.1,0,2,0.9,2,2v6c0,1.1-0.9,2-2,2h-6c-1.1,0-2-0.9-2-2v-6C150,100.9,150.9,100,152,100z"/>
<path class="st0" d="M180,100L180,100c2.8,0,5,2.2,5,5l0,0c0,2.8-2.2,5-5,5l0,0c-2.8,0-5-2.2-5-5l0,0C175,102.2,177.2,100,180,100z"
	/>
<path class="st0" d="M202,100h6c1.1,0,2,0.9,2,2v6c0,1.1-0.9,2-2,2h-6c-1.1,0-2-0.9-2-2v-6C200,100.9,200.9,100,202,100z"/>
<path class="st0" d="M230,100L230,100c2.8,0,5,2.2,5,5l0,0c0,2.8-2.2,5-5,5l0,0c-2.8,0-5-2.2-5-5l0,0C225,102.2,227.2,100,230,100z"
	/>
<path class="st0" d="M252,100h6c1.1,0,2,0.9,2,2v6c0,1.1-0.9,2-2,2h-6c-1.1,0-2-0.9-2-2v-6C250,100.9,250.9,100,252,100z"/>
<path class="st0" d="M280,100L280,100c2.8,0,5,2.2,5,5l0,0c0,2.8-2.2,5-5,5l0,0c-2.8,0-5-2.2-5-5l0,0C275,102.2,277.2,100,280,100z"
	/>
<path class="st0" d="M302,100h6c1.1,0,2,0.9,2,2v6c0,1.1-0.9,2-2,2h-6c-1.1,0-2-0.9-2-2v-6C300,100.9,300.9,100,302,100z"/>
<path class="st0" d="M330,100L330,100c2.8,0,5,2.2,5,5l0,0c0,2.8-2.2,5-5,5l0,0c-2.8,0-5-2.2-5-5l0,0C325,102.2,327.2,100,330,100z"
	/>
<path class="st0" d="M352,100h6c1.1,0,2,0.9,2,2v6c0,1.1-0.9,2-2,2h-6c-1.1,0-2-0.9-2-2v-6C350,100.9,350.9,100,352,100z"/>
<path class="st0" d="M380,100L380,100c2.8,0,5,2.2,5,5l0,0c0,2.8-2.2,5-5,5l0,0c-2.8,0-5-2.2-5-5l0,0C375,102.2,377.2,100,380,100z"
	/>
<path class="st0" d="M402,100h6c1.1,0,2,0.9,2,2v6c0,1.1-0.9,2-2,2h-6c-1.1,0-2-0.9-2-2v-6C400,100.9,400.9,100,402,100z"/>
<path class="st0" d="M430,100L430,100c2.8,0,5,2.2,5,5l0,0c0,2.8-2.2,5-5,5l0,0c-2.8,0-5-2.2-5-5l0,0C425,102.2,427.2,100,430,100z"
	/>
<path class="st0" d="M452,100h6c1.1,0,2,0.9,2,2v6c0,1.1-0.9,2-2,2h-6c-1.1,0-2-0.9-2-2v-6C450,100.9,450.9,100,452,100z"/>
<path class="st0" d="M480,100L480,100c2.8,0,5,2.2,5,5l0,0c0,2.8-2.2,5-5,5l0,0c-2.8,0-5-2.2-5-5l0,0C475,102.2,477.2,100,480,100z"
	/>
<path class="st0" d="M502,100h6c1.1,0,2,0.9,2,2v6c0,1.1-0.9,2-2,2h-6c-1.1,0-2-0.9-2-2v-6C500,100.9,500.9,100,502,100z"/>
<path class="st0" d="M530,100L530,100c2.8,0,5,2.2,5,5l0,0c0,2.8-2.2,5-5,5l0,0c-2.8,0-5-2.2-5-5l0,0C525,102.2,527.2,100,530,100z"
	/>
<path class="st0" d="M552,100h6c1.1,0,2,0.9,2,2v6c0,1.1-0.9,2-2,2h-6c-1.1,0-2-0.9-2-2v-6C550,100.9,550.9,100,552,100z"/>
<path class="st0" d="M580,100L580,100c2.8,0,5,2.2,5,5l0,0c0,2.8-2.2,5-5,5l0,0c-2.8,0-5-2.2-5-5l0,0C575,102.2,577.2,100,580,100z"
	/>
<path class="st0" d="M602,100h6c1.1,0,2,0.9,2,2v6c0,1.1-0.9,2-2,2h-6c-1.1,0-2-0.9-2-2v-6C600,100.9,600.9,100,602,100z"/>
<path class="st0" d="M630,100L630,100c2.8,0,5,2.2,5,5l0,0c0,2.8-2.2,5-5,5l0,0c-2.8,0-5-2.2-5-5l0,0C625,102.2,627.2,100,630,100z"
	/>
<path class="st0" d="M652,100h6c1.1,0,2,0.9,2,2v6c0,1.1-0.9,2-2,2h-6c-1.1,0-2-0.9-2-2v-6C650,100.9,650.9,100,652,100z"/>
<path class="st0" d="M680,100L680,100c2.8,0,5,2.2,5,5l0,0c0,2.8-2.2,5-5,5l0,0c-2.8,0-5-2.2-5-5l0,0C675,102.2,677.2,100,680,100z"
	/>
<path class="st0" d="M702,100h6c1.1,0,2,0.9,2,2v6c0,1.1-0.9,2-2,2h-6c-1.1,0-2-0.9-2-2v-6C700,100.9,700.9,100,702,100z"/>
<path class="st0" d="M730,100L730,100c2.8,0,5,2.2,5,5l0,0c0,2.8-2.2,5-5,5l0,0c-2.8,0-5-2.2-5-5l0,0C725,102.2,727.2,100,730,100z"
	/>
<path class="st0" d="M752,100h6c1.1,0,2,0.9,2,2v6c0,1.1-0.9,2-2,2h-6c-1.1,0-2-0.9-2-2v-6C750,100.9,750.9,100,752,100z"/>
<path class="st0" d="M780,100L780,100c2.8,0,5,2.2,5,5l0,0c0,2.8-2.2,5-5,5l0,0c-2.8,0-5-2.2-5-5l0,0C775,102.2,777.2,100,780,100z"
	/>
<path class="st0" d="M802,100h6c1.1,0,2,0.9,2,2v6c0,1.1-0.9,2-2,2h-6c-1.1,0-2-0.9-2-2v-6C800,100.9,800.9,100,802,100z"/>
<path class="st0" d="M830,100L830,100c2.8,0,5,2.2,5,5l0,0c0,2.8-2.2,5-5,5l0,0c-2.8,0-5-2.2-5-5l0,0C825,102.2,827.2,100,830,100z"
	/>
<path class="st0" d="M852,100h6c1.1,0,2,0.9,2,2v6c0,1.1-0.9,2-2,2h-6c-1.1,0-2-0.9-2-2v-6C850,100.9,850.9,100,852,100z"/>
<path class="st0" d="M880,100L880,100c2.8,0,5,2.2,5,5l0,0c0,2.8-2.2,5-5,5l0,0c-2.8,0-5-2.2-5-5l0,0C875,102.2,877.2,100,880,100z"
	/>
<path class="st0" d="M902,100h6c1.1,0,2,0.9,2,2v6c0,1.1-0.9,2-2,2h-6c-1.1,0-2-0.9-2-2v-6C900,100.9,900.9,100,902,100z"/>
<path class="st0" d="M930,100L930,100c2.8,0,5,2.2,5,5l0,0c0,2.8-2.2,5-5,5l0,0c-2.8,0-5-2.2-5-5l0,0C925,102.2,927.2,100,930,100z"
	/>
<path class="st0" d="M952,100h6c1.1,0,2,0.9,2,2v6c0,1.1-0.9,2-2,2h-6c-1.1,0-2-0.9-2-2v-6C950,100.9,950.9,100,952,100z"/>
<path class="st0" d="M980,100L980,100c2.8,0,5,2.2,5,5l0,0c0,2.8-2.2,5-5,5l0,0c-2.8,0-5-2.2-5-5l0,0C975,102.2,977.2,100,980,100z"
	/>
<path class="st0" d="M1002,100h6c1.1,0,2,0.9,2,2v6c0,1.1-0.9,2-2,2h-6c-1.1,0-2-0.9-2-2v-6C1000,100.9,1000.9,100,1002,100z"/>
<path class="st0" d="M1030,100L1030,100c2.8,0,5,2.2,5,5l0,0c0,2.8-2.2,5-5,5l0,0c-2.8,0-5-2.2-5-5l0,0
	C1025,102.2,1027.2,100,1030,100z"/>
<path class="st0" d="M1052,100h6c1.1,0,2,0.9,2,2v6c0,1.1-0.9,2-2,2h-6c-1.1,0-2-0.9-2-2v-6C1050,100.9,1050.9,100,1052,100z"/>
<path class="st0" d="M14,125h6c1.1,0,2,0.9,2,2v6c0,1.1-0.9,2-2,2h-6c-1.1,0-2-0.9-2-2v-6C12,125.9,12.9,125,14,125z"/>
<path class="st0" d="M42,125L42,125c2.8,0,5,2.2,5,5l0,0c0,2.8-2.2,5-5,5l0,0c-2.8,0-5-2.2-5-5l0,0C37,127.2,39.2,125,42,125z"/>
<path class="st0" d="M64,125h6c1.1,0,2,0.9,2,2v6c0,1.1-0.9,2-2,2h-6c-1.1,0-2-0.9-2-2v-6C62,125.9,62.9,125,64,125z"/>
<path class="st0" d="M92,125L92,125c2.8,0,5,2.2,5,5l0,0c0,2.8-2.2,5-5,5l0,0c-2.8,0-5-2.2-5-5l0,0C87,127.2,89.2,125,92,125z"/>
<path class="st0" d="M114,125h6c1.1,0,2,0.9,2,2v6c0,1.1-0.9,2-2,2h-6c-1.1,0-2-0.9-2-2v-6C112,125.9,112.9,125,114,125z"/>
<path class="st0" d="M142,125L142,125c2.8,0,5,2.2,5,5l0,0c0,2.8-2.2,5-5,5l0,0c-2.8,0-5-2.2-5-5l0,0C137,127.2,139.2,125,142,125z"
	/>
<path class="st0" d="M164,125h6c1.1,0,2,0.9,2,2v6c0,1.1-0.9,2-2,2h-6c-1.1,0-2-0.9-2-2v-6C162,125.9,162.9,125,164,125z"/>
<path class="st0" d="M192,125L192,125c2.8,0,5,2.2,5,5l0,0c0,2.8-2.2,5-5,5l0,0c-2.8,0-5-2.2-5-5l0,0C187,127.2,189.2,125,192,125z"
	/>
<path class="st0" d="M214,125h6c1.1,0,2,0.9,2,2v6c0,1.1-0.9,2-2,2h-6c-1.1,0-2-0.9-2-2v-6C212,125.9,212.9,125,214,125z"/>
<path class="st0" d="M242,125L242,125c2.8,0,5,2.2,5,5l0,0c0,2.8-2.2,5-5,5l0,0c-2.8,0-5-2.2-5-5l0,0C237,127.2,239.2,125,242,125z"
	/>
<path class="st0" d="M264,125h6c1.1,0,2,0.9,2,2v6c0,1.1-0.9,2-2,2h-6c-1.1,0-2-0.9-2-2v-6C262,125.9,262.9,125,264,125z"/>
<path class="st0" d="M292,125L292,125c2.8,0,5,2.2,5,5l0,0c0,2.8-2.2,5-5,5l0,0c-2.8,0-5-2.2-5-5l0,0C287,127.2,289.2,125,292,125z"
	/>
<path class="st0" d="M314,125h6c1.1,0,2,0.9,2,2v6c0,1.1-0.9,2-2,2h-6c-1.1,0-2-0.9-2-2v-6C312,125.9,312.9,125,314,125z"/>
<path class="st0" d="M342,125L342,125c2.8,0,5,2.2,5,5l0,0c0,2.8-2.2,5-5,5l0,0c-2.8,0-5-2.2-5-5l0,0C337,127.2,339.2,125,342,125z"
	/>
<path class="st0" d="M364,125h6c1.1,0,2,0.9,2,2v6c0,1.1-0.9,2-2,2h-6c-1.1,0-2-0.9-2-2v-6C362,125.9,362.9,125,364,125z"/>
<path class="st0" d="M392,125L392,125c2.8,0,5,2.2,5,5l0,0c0,2.8-2.2,5-5,5l0,0c-2.8,0-5-2.2-5-5l0,0C387,127.2,389.2,125,392,125z"
	/>
<path class="st0" d="M414,125h6c1.1,0,2,0.9,2,2v6c0,1.1-0.9,2-2,2h-6c-1.1,0-2-0.9-2-2v-6C412,125.9,412.9,125,414,125z"/>
<path class="st0" d="M442,125L442,125c2.8,0,5,2.2,5,5l0,0c0,2.8-2.2,5-5,5l0,0c-2.8,0-5-2.2-5-5l0,0C437,127.2,439.2,125,442,125z"
	/>
<path class="st0" d="M464,125h6c1.1,0,2,0.9,2,2v6c0,1.1-0.9,2-2,2h-6c-1.1,0-2-0.9-2-2v-6C462,125.9,462.9,125,464,125z"/>
<path class="st0" d="M492,125L492,125c2.8,0,5,2.2,5,5l0,0c0,2.8-2.2,5-5,5l0,0c-2.8,0-5-2.2-5-5l0,0C487,127.2,489.2,125,492,125z"
	/>
<path class="st0" d="M514,125h6c1.1,0,2,0.9,2,2v6c0,1.1-0.9,2-2,2h-6c-1.1,0-2-0.9-2-2v-6C512,125.9,512.9,125,514,125z"/>
<path class="st0" d="M542,125L542,125c2.8,0,5,2.2,5,5l0,0c0,2.8-2.2,5-5,5l0,0c-2.8,0-5-2.2-5-5l0,0C537,127.2,539.2,125,542,125z"
	/>
<path class="st0" d="M564,125h6c1.1,0,2,0.9,2,2v6c0,1.1-0.9,2-2,2h-6c-1.1,0-2-0.9-2-2v-6C562,125.9,562.9,125,564,125z"/>
<path class="st0" d="M592,125L592,125c2.8,0,5,2.2,5,5l0,0c0,2.8-2.2,5-5,5l0,0c-2.8,0-5-2.2-5-5l0,0C587,127.2,589.2,125,592,125z"
	/>
<path class="st0" d="M614,125h6c1.1,0,2,0.9,2,2v6c0,1.1-0.9,2-2,2h-6c-1.1,0-2-0.9-2-2v-6C612,125.9,612.9,125,614,125z"/>
<path class="st0" d="M642,125L642,125c2.8,0,5,2.2,5,5l0,0c0,2.8-2.2,5-5,5l0,0c-2.8,0-5-2.2-5-5l0,0C637,127.2,639.2,125,642,125z"
	/>
<path class="st0" d="M664,125h6c1.1,0,2,0.9,2,2v6c0,1.1-0.9,2-2,2h-6c-1.1,0-2-0.9-2-2v-6C662,125.9,662.9,125,664,125z"/>
<path class="st0" d="M692,125L692,125c2.8,0,5,2.2,5,5l0,0c0,2.8-2.2,5-5,5l0,0c-2.8,0-5-2.2-5-5l0,0C687,127.2,689.2,125,692,125z"
	/>
<path class="st0" d="M714,125h6c1.1,0,2,0.9,2,2v6c0,1.1-0.9,2-2,2h-6c-1.1,0-2-0.9-2-2v-6C712,125.9,712.9,125,714,125z"/>
<path class="st0" d="M742,125L742,125c2.8,0,5,2.2,5,5l0,0c0,2.8-2.2,5-5,5l0,0c-2.8,0-5-2.2-5-5l0,0C737,127.2,739.2,125,742,125z"
	/>
<path class="st0" d="M764,125h6c1.1,0,2,0.9,2,2v6c0,1.1-0.9,2-2,2h-6c-1.1,0-2-0.9-2-2v-6C762,125.9,762.9,125,764,125z"/>
<path class="st0" d="M792,125L792,125c2.8,0,5,2.2,5,5l0,0c0,2.8-2.2,5-5,5l0,0c-2.8,0-5-2.2-5-5l0,0C787,127.2,789.2,125,792,125z"
	/>
<path class="st0" d="M814,125h6c1.1,0,2,0.9,2,2v6c0,1.1-0.9,2-2,2h-6c-1.1,0-2-0.9-2-2v-6C812,125.9,812.9,125,814,125z"/>
<path class="st0" d="M842,125L842,125c2.8,0,5,2.2,5,5l0,0c0,2.8-2.2,5-5,5l0,0c-2.8,0-5-2.2-5-5l0,0C837,127.2,839.2,125,842,125z"
	/>
<path class="st0" d="M864,125h6c1.1,0,2,0.9,2,2v6c0,1.1-0.9,2-2,2h-6c-1.1,0-2-0.9-2-2v-6C862,125.9,862.9,125,864,125z"/>
<path class="st0" d="M892,125L892,125c2.8,0,5,2.2,5,5l0,0c0,2.8-2.2,5-5,5l0,0c-2.8,0-5-2.2-5-5l0,0C887,127.2,889.2,125,892,125z"
	/>
<path class="st0" d="M914,125h6c1.1,0,2,0.9,2,2v6c0,1.1-0.9,2-2,2h-6c-1.1,0-2-0.9-2-2v-6C912,125.9,912.9,125,914,125z"/>
<path class="st0" d="M942,125L942,125c2.8,0,5,2.2,5,5l0,0c0,2.8-2.2,5-5,5l0,0c-2.8,0-5-2.2-5-5l0,0C937,127.2,939.2,125,942,125z"
	/>
<path class="st0" d="M964,125h6c1.1,0,2,0.9,2,2v6c0,1.1-0.9,2-2,2h-6c-1.1,0-2-0.9-2-2v-6C962,125.9,962.9,125,964,125z"/>
<path class="st0" d="M992,125L992,125c2.8,0,5,2.2,5,5l0,0c0,2.8-2.2,5-5,5l0,0c-2.8,0-5-2.2-5-5l0,0C987,127.2,989.2,125,992,125z"
	/>
<path class="st0" d="M1014,125h6c1.1,0,2,0.9,2,2v6c0,1.1-0.9,2-2,2h-6c-1.1,0-2-0.9-2-2v-6C1012,125.9,1012.9,125,1014,125z"/>
<path class="st0" d="M1042,125L1042,125c2.8,0,5,2.2,5,5l0,0c0,2.8-2.2,5-5,5l0,0c-2.8,0-5-2.2-5-5l0,0
	C1037,127.2,1039.2,125,1042,125z"/>
<path class="st0" d="M2,150h6c1.1,0,2,0.9,2,2v6c0,1.1-0.9,2-2,2H2c-1.1,0-2-0.9-2-2v-6C0,150.9,0.9,150,2,150z"/>
<path class="st0" d="M30,150L30,150c2.8,0,5,2.2,5,5l0,0c0,2.8-2.2,5-5,5l0,0c-2.8,0-5-2.2-5-5l0,0C25,152.2,27.2,150,30,150z"/>
<path class="st0" d="M52,150h6c1.1,0,2,0.9,2,2v6c0,1.1-0.9,2-2,2h-6c-1.1,0-2-0.9-2-2v-6C50,150.9,50.9,150,52,150z"/>
<path class="st0" d="M80,150L80,150c2.8,0,5,2.2,5,5l0,0c0,2.8-2.2,5-5,5l0,0c-2.8,0-5-2.2-5-5l0,0C75,152.2,77.2,150,80,150z"/>
<path class="st0" d="M102,150h6c1.1,0,2,0.9,2,2v6c0,1.1-0.9,2-2,2h-6c-1.1,0-2-0.9-2-2v-6C100,150.9,100.9,150,102,150z"/>
<path class="st0" d="M130,150L130,150c2.8,0,5,2.2,5,5l0,0c0,2.8-2.2,5-5,5l0,0c-2.8,0-5-2.2-5-5l0,0C125,152.2,127.2,150,130,150z"
	/>
<path class="st0" d="M152,150h6c1.1,0,2,0.9,2,2v6c0,1.1-0.9,2-2,2h-6c-1.1,0-2-0.9-2-2v-6C150,150.9,150.9,150,152,150z"/>
<path class="st0" d="M180,150L180,150c2.8,0,5,2.2,5,5l0,0c0,2.8-2.2,5-5,5l0,0c-2.8,0-5-2.2-5-5l0,0C175,152.2,177.2,150,180,150z"
	/>
<path class="st0" d="M202,150h6c1.1,0,2,0.9,2,2v6c0,1.1-0.9,2-2,2h-6c-1.1,0-2-0.9-2-2v-6C200,150.9,200.9,150,202,150z"/>
<path class="st0" d="M230,150L230,150c2.8,0,5,2.2,5,5l0,0c0,2.8-2.2,5-5,5l0,0c-2.8,0-5-2.2-5-5l0,0C225,152.2,227.2,150,230,150z"
	/>
<path class="st0" d="M252,150h6c1.1,0,2,0.9,2,2v6c0,1.1-0.9,2-2,2h-6c-1.1,0-2-0.9-2-2v-6C250,150.9,250.9,150,252,150z"/>
<path class="st0" d="M280,150L280,150c2.8,0,5,2.2,5,5l0,0c0,2.8-2.2,5-5,5l0,0c-2.8,0-5-2.2-5-5l0,0C275,152.2,277.2,150,280,150z"
	/>
<path class="st0" d="M302,150h6c1.1,0,2,0.9,2,2v6c0,1.1-0.9,2-2,2h-6c-1.1,0-2-0.9-2-2v-6C300,150.9,300.9,150,302,150z"/>
<path class="st0" d="M330,150L330,150c2.8,0,5,2.2,5,5l0,0c0,2.8-2.2,5-5,5l0,0c-2.8,0-5-2.2-5-5l0,0C325,152.2,327.2,150,330,150z"
	/>
<path class="st0" d="M352,150h6c1.1,0,2,0.9,2,2v6c0,1.1-0.9,2-2,2h-6c-1.1,0-2-0.9-2-2v-6C350,150.9,350.9,150,352,150z"/>
<path class="st0" d="M380,150L380,150c2.8,0,5,2.2,5,5l0,0c0,2.8-2.2,5-5,5l0,0c-2.8,0-5-2.2-5-5l0,0C375,152.2,377.2,150,380,150z"
	/>
<path class="st0" d="M402,150h6c1.1,0,2,0.9,2,2v6c0,1.1-0.9,2-2,2h-6c-1.1,0-2-0.9-2-2v-6C400,150.9,400.9,150,402,150z"/>
<path class="st0" d="M430,150L430,150c2.8,0,5,2.2,5,5l0,0c0,2.8-2.2,5-5,5l0,0c-2.8,0-5-2.2-5-5l0,0C425,152.2,427.2,150,430,150z"
	/>
<path class="st0" d="M452,150h6c1.1,0,2,0.9,2,2v6c0,1.1-0.9,2-2,2h-6c-1.1,0-2-0.9-2-2v-6C450,150.9,450.9,150,452,150z"/>
<path class="st0" d="M480,150L480,150c2.8,0,5,2.2,5,5l0,0c0,2.8-2.2,5-5,5l0,0c-2.8,0-5-2.2-5-5l0,0C475,152.2,477.2,150,480,150z"
	/>
<path class="st0" d="M502,150h6c1.1,0,2,0.9,2,2v6c0,1.1-0.9,2-2,2h-6c-1.1,0-2-0.9-2-2v-6C500,150.9,500.9,150,502,150z"/>
<path class="st0" d="M530,150L530,150c2.8,0,5,2.2,5,5l0,0c0,2.8-2.2,5-5,5l0,0c-2.8,0-5-2.2-5-5l0,0C525,152.2,527.2,150,530,150z"
	/>
<path class="st0" d="M552,150h6c1.1,0,2,0.9,2,2v6c0,1.1-0.9,2-2,2h-6c-1.1,0-2-0.9-2-2v-6C550,150.9,550.9,150,552,150z"/>
<path class="st0" d="M580,150L580,150c2.8,0,5,2.2,5,5l0,0c0,2.8-2.2,5-5,5l0,0c-2.8,0-5-2.2-5-5l0,0C575,152.2,577.2,150,580,150z"
	/>
<path class="st0" d="M602,150h6c1.1,0,2,0.9,2,2v6c0,1.1-0.9,2-2,2h-6c-1.1,0-2-0.9-2-2v-6C600,150.9,600.9,150,602,150z"/>
<path class="st0" d="M630,150L630,150c2.8,0,5,2.2,5,5l0,0c0,2.8-2.2,5-5,5l0,0c-2.8,0-5-2.2-5-5l0,0C625,152.2,627.2,150,630,150z"
	/>
<path class="st0" d="M652,150h6c1.1,0,2,0.9,2,2v6c0,1.1-0.9,2-2,2h-6c-1.1,0-2-0.9-2-2v-6C650,150.9,650.9,150,652,150z"/>
<path class="st0" d="M680,150L680,150c2.8,0,5,2.2,5,5l0,0c0,2.8-2.2,5-5,5l0,0c-2.8,0-5-2.2-5-5l0,0C675,152.2,677.2,150,680,150z"
	/>
<path class="st0" d="M702,150h6c1.1,0,2,0.9,2,2v6c0,1.1-0.9,2-2,2h-6c-1.1,0-2-0.9-2-2v-6C700,150.9,700.9,150,702,150z"/>
<path class="st0" d="M730,150L730,150c2.8,0,5,2.2,5,5l0,0c0,2.8-2.2,5-5,5l0,0c-2.8,0-5-2.2-5-5l0,0C725,152.2,727.2,150,730,150z"
	/>
<path class="st0" d="M752,150h6c1.1,0,2,0.9,2,2v6c0,1.1-0.9,2-2,2h-6c-1.1,0-2-0.9-2-2v-6C750,150.9,750.9,150,752,150z"/>
<path class="st0" d="M780,150L780,150c2.8,0,5,2.2,5,5l0,0c0,2.8-2.2,5-5,5l0,0c-2.8,0-5-2.2-5-5l0,0C775,152.2,777.2,150,780,150z"
	/>
<path class="st0" d="M802,150h6c1.1,0,2,0.9,2,2v6c0,1.1-0.9,2-2,2h-6c-1.1,0-2-0.9-2-2v-6C800,150.9,800.9,150,802,150z"/>
<path class="st0" d="M830,150L830,150c2.8,0,5,2.2,5,5l0,0c0,2.8-2.2,5-5,5l0,0c-2.8,0-5-2.2-5-5l0,0C825,152.2,827.2,150,830,150z"
	/>
<path class="st0" d="M852,150h6c1.1,0,2,0.9,2,2v6c0,1.1-0.9,2-2,2h-6c-1.1,0-2-0.9-2-2v-6C850,150.9,850.9,150,852,150z"/>
<path class="st0" d="M880,150L880,150c2.8,0,5,2.2,5,5l0,0c0,2.8-2.2,5-5,5l0,0c-2.8,0-5-2.2-5-5l0,0C875,152.2,877.2,150,880,150z"
	/>
<path class="st0" d="M902,150h6c1.1,0,2,0.9,2,2v6c0,1.1-0.9,2-2,2h-6c-1.1,0-2-0.9-2-2v-6C900,150.9,900.9,150,902,150z"/>
<path class="st0" d="M930,150L930,150c2.8,0,5,2.2,5,5l0,0c0,2.8-2.2,5-5,5l0,0c-2.8,0-5-2.2-5-5l0,0C925,152.2,927.2,150,930,150z"
	/>
<path class="st0" d="M952,150h6c1.1,0,2,0.9,2,2v6c0,1.1-0.9,2-2,2h-6c-1.1,0-2-0.9-2-2v-6C950,150.9,950.9,150,952,150z"/>
<path class="st0" d="M980,150L980,150c2.8,0,5,2.2,5,5l0,0c0,2.8-2.2,5-5,5l0,0c-2.8,0-5-2.2-5-5l0,0C975,152.2,977.2,150,980,150z"
	/>
<path class="st0" d="M1002,150h6c1.1,0,2,0.9,2,2v6c0,1.1-0.9,2-2,2h-6c-1.1,0-2-0.9-2-2v-6C1000,150.9,1000.9,150,1002,150z"/>
<path class="st0" d="M1030,150L1030,150c2.8,0,5,2.2,5,5l0,0c0,2.8-2.2,5-5,5l0,0c-2.8,0-5-2.2-5-5l0,0
	C1025,152.2,1027.2,150,1030,150z"/>
<path class="st0" d="M1052,150h6c1.1,0,2,0.9,2,2v6c0,1.1-0.9,2-2,2h-6c-1.1,0-2-0.9-2-2v-6C1050,150.9,1050.9,150,1052,150z"/>
<path class="st0" d="M14,175h6c1.1,0,2,0.9,2,2v6c0,1.1-0.9,2-2,2h-6c-1.1,0-2-0.9-2-2v-6C12,175.9,12.9,175,14,175z"/>
<path class="st0" d="M42,175L42,175c2.8,0,5,2.2,5,5l0,0c0,2.8-2.2,5-5,5l0,0c-2.8,0-5-2.2-5-5l0,0C37,177.2,39.2,175,42,175z"/>
<path class="st0" d="M64,175h6c1.1,0,2,0.9,2,2v6c0,1.1-0.9,2-2,2h-6c-1.1,0-2-0.9-2-2v-6C62,175.9,62.9,175,64,175z"/>
<path class="st0" d="M92,175L92,175c2.8,0,5,2.2,5,5l0,0c0,2.8-2.2,5-5,5l0,0c-2.8,0-5-2.2-5-5l0,0C87,177.2,89.2,175,92,175z"/>
<path class="st0" d="M114,175h6c1.1,0,2,0.9,2,2v6c0,1.1-0.9,2-2,2h-6c-1.1,0-2-0.9-2-2v-6C112,175.9,112.9,175,114,175z"/>
<path class="st0" d="M142,175L142,175c2.8,0,5,2.2,5,5l0,0c0,2.8-2.2,5-5,5l0,0c-2.8,0-5-2.2-5-5l0,0C137,177.2,139.2,175,142,175z"
	/>
<path class="st0" d="M164,175h6c1.1,0,2,0.9,2,2v6c0,1.1-0.9,2-2,2h-6c-1.1,0-2-0.9-2-2v-6C162,175.9,162.9,175,164,175z"/>
<path class="st0" d="M192,175L192,175c2.8,0,5,2.2,5,5l0,0c0,2.8-2.2,5-5,5l0,0c-2.8,0-5-2.2-5-5l0,0C187,177.2,189.2,175,192,175z"
	/>
<path class="st0" d="M214,175h6c1.1,0,2,0.9,2,2v6c0,1.1-0.9,2-2,2h-6c-1.1,0-2-0.9-2-2v-6C212,175.9,212.9,175,214,175z"/>
<path class="st0" d="M242,175L242,175c2.8,0,5,2.2,5,5l0,0c0,2.8-2.2,5-5,5l0,0c-2.8,0-5-2.2-5-5l0,0C237,177.2,239.2,175,242,175z"
	/>
<path class="st0" d="M264,175h6c1.1,0,2,0.9,2,2v6c0,1.1-0.9,2-2,2h-6c-1.1,0-2-0.9-2-2v-6C262,175.9,262.9,175,264,175z"/>
<path class="st0" d="M292,175L292,175c2.8,0,5,2.2,5,5l0,0c0,2.8-2.2,5-5,5l0,0c-2.8,0-5-2.2-5-5l0,0C287,177.2,289.2,175,292,175z"
	/>
<path class="st0" d="M314,175h6c1.1,0,2,0.9,2,2v6c0,1.1-0.9,2-2,2h-6c-1.1,0-2-0.9-2-2v-6C312,175.9,312.9,175,314,175z"/>
<path class="st0" d="M342,175L342,175c2.8,0,5,2.2,5,5l0,0c0,2.8-2.2,5-5,5l0,0c-2.8,0-5-2.2-5-5l0,0C337,177.2,339.2,175,342,175z"
	/>
<path class="st0" d="M364,175h6c1.1,0,2,0.9,2,2v6c0,1.1-0.9,2-2,2h-6c-1.1,0-2-0.9-2-2v-6C362,175.9,362.9,175,364,175z"/>
<path class="st0" d="M392,175L392,175c2.8,0,5,2.2,5,5l0,0c0,2.8-2.2,5-5,5l0,0c-2.8,0-5-2.2-5-5l0,0C387,177.2,389.2,175,392,175z"
	/>
<path class="st0" d="M414,175h6c1.1,0,2,0.9,2,2v6c0,1.1-0.9,2-2,2h-6c-1.1,0-2-0.9-2-2v-6C412,175.9,412.9,175,414,175z"/>
<path class="st0" d="M442,175L442,175c2.8,0,5,2.2,5,5l0,0c0,2.8-2.2,5-5,5l0,0c-2.8,0-5-2.2-5-5l0,0C437,177.2,439.2,175,442,175z"
	/>
<path class="st0" d="M464,175h6c1.1,0,2,0.9,2,2v6c0,1.1-0.9,2-2,2h-6c-1.1,0-2-0.9-2-2v-6C462,175.9,462.9,175,464,175z"/>
<path class="st0" d="M492,175L492,175c2.8,0,5,2.2,5,5l0,0c0,2.8-2.2,5-5,5l0,0c-2.8,0-5-2.2-5-5l0,0C487,177.2,489.2,175,492,175z"
	/>
<path class="st0" d="M514,175h6c1.1,0,2,0.9,2,2v6c0,1.1-0.9,2-2,2h-6c-1.1,0-2-0.9-2-2v-6C512,175.9,512.9,175,514,175z"/>
<path class="st0" d="M542,175L542,175c2.8,0,5,2.2,5,5l0,0c0,2.8-2.2,5-5,5l0,0c-2.8,0-5-2.2-5-5l0,0C537,177.2,539.2,175,542,175z"
	/>
<path class="st0" d="M564,175h6c1.1,0,2,0.9,2,2v6c0,1.1-0.9,2-2,2h-6c-1.1,0-2-0.9-2-2v-6C562,175.9,562.9,175,564,175z"/>
<path class="st0" d="M592,175L592,175c2.8,0,5,2.2,5,5l0,0c0,2.8-2.2,5-5,5l0,0c-2.8,0-5-2.2-5-5l0,0C587,177.2,589.2,175,592,175z"
	/>
<path class="st0" d="M614,175h6c1.1,0,2,0.9,2,2v6c0,1.1-0.9,2-2,2h-6c-1.1,0-2-0.9-2-2v-6C612,175.9,612.9,175,614,175z"/>
<path class="st0" d="M642,175L642,175c2.8,0,5,2.2,5,5l0,0c0,2.8-2.2,5-5,5l0,0c-2.8,0-5-2.2-5-5l0,0C637,177.2,639.2,175,642,175z"
	/>
<path class="st0" d="M664,175h6c1.1,0,2,0.9,2,2v6c0,1.1-0.9,2-2,2h-6c-1.1,0-2-0.9-2-2v-6C662,175.9,662.9,175,664,175z"/>
<path class="st0" d="M692,175L692,175c2.8,0,5,2.2,5,5l0,0c0,2.8-2.2,5-5,5l0,0c-2.8,0-5-2.2-5-5l0,0C687,177.2,689.2,175,692,175z"
	/>
<path class="st0" d="M714,175h6c1.1,0,2,0.9,2,2v6c0,1.1-0.9,2-2,2h-6c-1.1,0-2-0.9-2-2v-6C712,175.9,712.9,175,714,175z"/>
<path class="st0" d="M742,175L742,175c2.8,0,5,2.2,5,5l0,0c0,2.8-2.2,5-5,5l0,0c-2.8,0-5-2.2-5-5l0,0C737,177.2,739.2,175,742,175z"
	/>
<path class="st0" d="M764,175h6c1.1,0,2,0.9,2,2v6c0,1.1-0.9,2-2,2h-6c-1.1,0-2-0.9-2-2v-6C762,175.9,762.9,175,764,175z"/>
<path class="st0" d="M792,175L792,175c2.8,0,5,2.2,5,5l0,0c0,2.8-2.2,5-5,5l0,0c-2.8,0-5-2.2-5-5l0,0C787,177.2,789.2,175,792,175z"
	/>
<path class="st0" d="M814,175h6c1.1,0,2,0.9,2,2v6c0,1.1-0.9,2-2,2h-6c-1.1,0-2-0.9-2-2v-6C812,175.9,812.9,175,814,175z"/>
<path class="st0" d="M842,175L842,175c2.8,0,5,2.2,5,5l0,0c0,2.8-2.2,5-5,5l0,0c-2.8,0-5-2.2-5-5l0,0C837,177.2,839.2,175,842,175z"
	/>
<path class="st0" d="M864,175h6c1.1,0,2,0.9,2,2v6c0,1.1-0.9,2-2,2h-6c-1.1,0-2-0.9-2-2v-6C862,175.9,862.9,175,864,175z"/>
<path class="st0" d="M892,175L892,175c2.8,0,5,2.2,5,5l0,0c0,2.8-2.2,5-5,5l0,0c-2.8,0-5-2.2-5-5l0,0C887,177.2,889.2,175,892,175z"
	/>
<path class="st0" d="M914,175h6c1.1,0,2,0.9,2,2v6c0,1.1-0.9,2-2,2h-6c-1.1,0-2-0.9-2-2v-6C912,175.9,912.9,175,914,175z"/>
<path class="st0" d="M942,175L942,175c2.8,0,5,2.2,5,5l0,0c0,2.8-2.2,5-5,5l0,0c-2.8,0-5-2.2-5-5l0,0C937,177.2,939.2,175,942,175z"
	/>
<path class="st0" d="M964,175h6c1.1,0,2,0.9,2,2v6c0,1.1-0.9,2-2,2h-6c-1.1,0-2-0.9-2-2v-6C962,175.9,962.9,175,964,175z"/>
<path class="st0" d="M992,175L992,175c2.8,0,5,2.2,5,5l0,0c0,2.8-2.2,5-5,5l0,0c-2.8,0-5-2.2-5-5l0,0C987,177.2,989.2,175,992,175z"
	/>
<path class="st0" d="M1014,175h6c1.1,0,2,0.9,2,2v6c0,1.1-0.9,2-2,2h-6c-1.1,0-2-0.9-2-2v-6C1012,175.9,1012.9,175,1014,175z"/>
<path class="st0" d="M1042,175L1042,175c2.8,0,5,2.2,5,5l0,0c0,2.8-2.2,5-5,5l0,0c-2.8,0-5-2.2-5-5l0,0
	C1037,177.2,1039.2,175,1042,175z"/>
<path class="st0" d="M2,200h6c1.1,0,2,0.9,2,2v6c0,1.1-0.9,2-2,2H2c-1.1,0-2-0.9-2-2v-6C0,200.9,0.9,200,2,200z"/>
<path class="st0" d="M30,200L30,200c2.8,0,5,2.2,5,5l0,0c0,2.8-2.2,5-5,5l0,0c-2.8,0-5-2.2-5-5l0,0C25,202.2,27.2,200,30,200z"/>
<path class="st0" d="M52,200h6c1.1,0,2,0.9,2,2v6c0,1.1-0.9,2-2,2h-6c-1.1,0-2-0.9-2-2v-6C50,200.9,50.9,200,52,200z"/>
<path class="st0" d="M80,200L80,200c2.8,0,5,2.2,5,5l0,0c0,2.8-2.2,5-5,5l0,0c-2.8,0-5-2.2-5-5l0,0C75,202.2,77.2,200,80,200z"/>
<path class="st0" d="M102,200h6c1.1,0,2,0.9,2,2v6c0,1.1-0.9,2-2,2h-6c-1.1,0-2-0.9-2-2v-6C100,200.9,100.9,200,102,200z"/>
<path class="st0" d="M130,200L130,200c2.8,0,5,2.2,5,5l0,0c0,2.8-2.2,5-5,5l0,0c-2.8,0-5-2.2-5-5l0,0C125,202.2,127.2,200,130,200z"
	/>
<path class="st0" d="M152,200h6c1.1,0,2,0.9,2,2v6c0,1.1-0.9,2-2,2h-6c-1.1,0-2-0.9-2-2v-6C150,200.9,150.9,200,152,200z"/>
<path class="st0" d="M180,200L180,200c2.8,0,5,2.2,5,5l0,0c0,2.8-2.2,5-5,5l0,0c-2.8,0-5-2.2-5-5l0,0C175,202.2,177.2,200,180,200z"
	/>
<path class="st0" d="M202,200h6c1.1,0,2,0.9,2,2v6c0,1.1-0.9,2-2,2h-6c-1.1,0-2-0.9-2-2v-6C200,200.9,200.9,200,202,200z"/>
<path class="st0" d="M230,200L230,200c2.8,0,5,2.2,5,5l0,0c0,2.8-2.2,5-5,5l0,0c-2.8,0-5-2.2-5-5l0,0C225,202.2,227.2,200,230,200z"
	/>
<path class="st0" d="M252,200h6c1.1,0,2,0.9,2,2v6c0,1.1-0.9,2-2,2h-6c-1.1,0-2-0.9-2-2v-6C250,200.9,250.9,200,252,200z"/>
<path class="st0" d="M280,200L280,200c2.8,0,5,2.2,5,5l0,0c0,2.8-2.2,5-5,5l0,0c-2.8,0-5-2.2-5-5l0,0C275,202.2,277.2,200,280,200z"
	/>
<path class="st0" d="M302,200h6c1.1,0,2,0.9,2,2v6c0,1.1-0.9,2-2,2h-6c-1.1,0-2-0.9-2-2v-6C300,200.9,300.9,200,302,200z"/>
<path class="st0" d="M330,200L330,200c2.8,0,5,2.2,5,5l0,0c0,2.8-2.2,5-5,5l0,0c-2.8,0-5-2.2-5-5l0,0C325,202.2,327.2,200,330,200z"
	/>
<path class="st0" d="M352,200h6c1.1,0,2,0.9,2,2v6c0,1.1-0.9,2-2,2h-6c-1.1,0-2-0.9-2-2v-6C350,200.9,350.9,200,352,200z"/>
<path class="st0" d="M380,200L380,200c2.8,0,5,2.2,5,5l0,0c0,2.8-2.2,5-5,5l0,0c-2.8,0-5-2.2-5-5l0,0C375,202.2,377.2,200,380,200z"
	/>
<path class="st0" d="M402,200h6c1.1,0,2,0.9,2,2v6c0,1.1-0.9,2-2,2h-6c-1.1,0-2-0.9-2-2v-6C400,200.9,400.9,200,402,200z"/>
<path class="st0" d="M430,200L430,200c2.8,0,5,2.2,5,5l0,0c0,2.8-2.2,5-5,5l0,0c-2.8,0-5-2.2-5-5l0,0C425,202.2,427.2,200,430,200z"
	/>
<path class="st0" d="M452,200h6c1.1,0,2,0.9,2,2v6c0,1.1-0.9,2-2,2h-6c-1.1,0-2-0.9-2-2v-6C450,200.9,450.9,200,452,200z"/>
<path class="st0" d="M480,200L480,200c2.8,0,5,2.2,5,5l0,0c0,2.8-2.2,5-5,5l0,0c-2.8,0-5-2.2-5-5l0,0C475,202.2,477.2,200,480,200z"
	/>
<path class="st0" d="M502,200h6c1.1,0,2,0.9,2,2v6c0,1.1-0.9,2-2,2h-6c-1.1,0-2-0.9-2-2v-6C500,200.9,500.9,200,502,200z"/>
<path class="st0" d="M530,200L530,200c2.8,0,5,2.2,5,5l0,0c0,2.8-2.2,5-5,5l0,0c-2.8,0-5-2.2-5-5l0,0C525,202.2,527.2,200,530,200z"
	/>
<path class="st0" d="M552,200h6c1.1,0,2,0.9,2,2v6c0,1.1-0.9,2-2,2h-6c-1.1,0-2-0.9-2-2v-6C550,200.9,550.9,200,552,200z"/>
<path class="st0" d="M580,200L580,200c2.8,0,5,2.2,5,5l0,0c0,2.8-2.2,5-5,5l0,0c-2.8,0-5-2.2-5-5l0,0C575,202.2,577.2,200,580,200z"
	/>
<path class="st0" d="M602,200h6c1.1,0,2,0.9,2,2v6c0,1.1-0.9,2-2,2h-6c-1.1,0-2-0.9-2-2v-6C600,200.9,600.9,200,602,200z"/>
<path class="st0" d="M630,200L630,200c2.8,0,5,2.2,5,5l0,0c0,2.8-2.2,5-5,5l0,0c-2.8,0-5-2.2-5-5l0,0C625,202.2,627.2,200,630,200z"
	/>
<path class="st0" d="M652,200h6c1.1,0,2,0.9,2,2v6c0,1.1-0.9,2-2,2h-6c-1.1,0-2-0.9-2-2v-6C650,200.9,650.9,200,652,200z"/>
<path class="st0" d="M680,200L680,200c2.8,0,5,2.2,5,5l0,0c0,2.8-2.2,5-5,5l0,0c-2.8,0-5-2.2-5-5l0,0C675,202.2,677.2,200,680,200z"
	/>
<path class="st0" d="M702,200h6c1.1,0,2,0.9,2,2v6c0,1.1-0.9,2-2,2h-6c-1.1,0-2-0.9-2-2v-6C700,200.9,700.9,200,702,200z"/>
<path class="st0" d="M730,200L730,200c2.8,0,5,2.2,5,5l0,0c0,2.8-2.2,5-5,5l0,0c-2.8,0-5-2.2-5-5l0,0C725,202.2,727.2,200,730,200z"
	/>
<path class="st0" d="M752,200h6c1.1,0,2,0.9,2,2v6c0,1.1-0.9,2-2,2h-6c-1.1,0-2-0.9-2-2v-6C750,200.9,750.9,200,752,200z"/>
<path class="st0" d="M780,200L780,200c2.8,0,5,2.2,5,5l0,0c0,2.8-2.2,5-5,5l0,0c-2.8,0-5-2.2-5-5l0,0C775,202.2,777.2,200,780,200z"
	/>
<path class="st0" d="M802,200h6c1.1,0,2,0.9,2,2v6c0,1.1-0.9,2-2,2h-6c-1.1,0-2-0.9-2-2v-6C800,200.9,800.9,200,802,200z"/>
<path class="st0" d="M830,200L830,200c2.8,0,5,2.2,5,5l0,0c0,2.8-2.2,5-5,5l0,0c-2.8,0-5-2.2-5-5l0,0C825,202.2,827.2,200,830,200z"
	/>
<path class="st0" d="M852,200h6c1.1,0,2,0.9,2,2v6c0,1.1-0.9,2-2,2h-6c-1.1,0-2-0.9-2-2v-6C850,200.9,850.9,200,852,200z"/>
<path class="st0" d="M880,200L880,200c2.8,0,5,2.2,5,5l0,0c0,2.8-2.2,5-5,5l0,0c-2.8,0-5-2.2-5-5l0,0C875,202.2,877.2,200,880,200z"
	/>
<path class="st0" d="M902,200h6c1.1,0,2,0.9,2,2v6c0,1.1-0.9,2-2,2h-6c-1.1,0-2-0.9-2-2v-6C900,200.9,900.9,200,902,200z"/>
<path class="st0" d="M930,200L930,200c2.8,0,5,2.2,5,5l0,0c0,2.8-2.2,5-5,5l0,0c-2.8,0-5-2.2-5-5l0,0C925,202.2,927.2,200,930,200z"
	/>
<path class="st0" d="M952,200h6c1.1,0,2,0.9,2,2v6c0,1.1-0.9,2-2,2h-6c-1.1,0-2-0.9-2-2v-6C950,200.9,950.9,200,952,200z"/>
<path class="st0" d="M980,200L980,200c2.8,0,5,2.2,5,5l0,0c0,2.8-2.2,5-5,5l0,0c-2.8,0-5-2.2-5-5l0,0C975,202.2,977.2,200,980,200z"
	/>
<path class="st0" d="M1002,200h6c1.1,0,2,0.9,2,2v6c0,1.1-0.9,2-2,2h-6c-1.1,0-2-0.9-2-2v-6C1000,200.9,1000.9,200,1002,200z"/>
<path class="st0" d="M1030,200L1030,200c2.8,0,5,2.2,5,5l0,0c0,2.8-2.2,5-5,5l0,0c-2.8,0-5-2.2-5-5l0,0
	C1025,202.2,1027.2,200,1030,200z"/>
<path class="st0" d="M1052,200h6c1.1,0,2,0.9,2,2v6c0,1.1-0.9,2-2,2h-6c-1.1,0-2-0.9-2-2v-6C1050,200.9,1050.9,200,1052,200z"/>
<path class="st0" d="M14,225h6c1.1,0,2,0.9,2,2v6c0,1.1-0.9,2-2,2h-6c-1.1,0-2-0.9-2-2v-6C12,225.9,12.9,225,14,225z"/>
<path class="st0" d="M42,225L42,225c2.8,0,5,2.2,5,5l0,0c0,2.8-2.2,5-5,5l0,0c-2.8,0-5-2.2-5-5l0,0C37,227.2,39.2,225,42,225z"/>
<path class="st0" d="M64,225h6c1.1,0,2,0.9,2,2v6c0,1.1-0.9,2-2,2h-6c-1.1,0-2-0.9-2-2v-6C62,225.9,62.9,225,64,225z"/>
<path class="st0" d="M92,225L92,225c2.8,0,5,2.2,5,5l0,0c0,2.8-2.2,5-5,5l0,0c-2.8,0-5-2.2-5-5l0,0C87,227.2,89.2,225,92,225z"/>
<path class="st0" d="M114,225h6c1.1,0,2,0.9,2,2v6c0,1.1-0.9,2-2,2h-6c-1.1,0-2-0.9-2-2v-6C112,225.9,112.9,225,114,225z"/>
<path class="st0" d="M142,225L142,225c2.8,0,5,2.2,5,5l0,0c0,2.8-2.2,5-5,5l0,0c-2.8,0-5-2.2-5-5l0,0C137,227.2,139.2,225,142,225z"
	/>
<path class="st0" d="M164,225h6c1.1,0,2,0.9,2,2v6c0,1.1-0.9,2-2,2h-6c-1.1,0-2-0.9-2-2v-6C162,225.9,162.9,225,164,225z"/>
<path class="st0" d="M192,225L192,225c2.8,0,5,2.2,5,5l0,0c0,2.8-2.2,5-5,5l0,0c-2.8,0-5-2.2-5-5l0,0C187,227.2,189.2,225,192,225z"
	/>
<path class="st0" d="M214,225h6c1.1,0,2,0.9,2,2v6c0,1.1-0.9,2-2,2h-6c-1.1,0-2-0.9-2-2v-6C212,225.9,212.9,225,214,225z"/>
<path class="st0" d="M242,225L242,225c2.8,0,5,2.2,5,5l0,0c0,2.8-2.2,5-5,5l0,0c-2.8,0-5-2.2-5-5l0,0C237,227.2,239.2,225,242,225z"
	/>
<path class="st0" d="M264,225h6c1.1,0,2,0.9,2,2v6c0,1.1-0.9,2-2,2h-6c-1.1,0-2-0.9-2-2v-6C262,225.9,262.9,225,264,225z"/>
<path class="st0" d="M292,225L292,225c2.8,0,5,2.2,5,5l0,0c0,2.8-2.2,5-5,5l0,0c-2.8,0-5-2.2-5-5l0,0C287,227.2,289.2,225,292,225z"
	/>
<path class="st0" d="M314,225h6c1.1,0,2,0.9,2,2v6c0,1.1-0.9,2-2,2h-6c-1.1,0-2-0.9-2-2v-6C312,225.9,312.9,225,314,225z"/>
<path class="st0" d="M342,225L342,225c2.8,0,5,2.2,5,5l0,0c0,2.8-2.2,5-5,5l0,0c-2.8,0-5-2.2-5-5l0,0C337,227.2,339.2,225,342,225z"
	/>
<path class="st0" d="M364,225h6c1.1,0,2,0.9,2,2v6c0,1.1-0.9,2-2,2h-6c-1.1,0-2-0.9-2-2v-6C362,225.9,362.9,225,364,225z"/>
<path class="st0" d="M392,225L392,225c2.8,0,5,2.2,5,5l0,0c0,2.8-2.2,5-5,5l0,0c-2.8,0-5-2.2-5-5l0,0C387,227.2,389.2,225,392,225z"
	/>
<path class="st0" d="M414,225h6c1.1,0,2,0.9,2,2v6c0,1.1-0.9,2-2,2h-6c-1.1,0-2-0.9-2-2v-6C412,225.9,412.9,225,414,225z"/>
<path class="st0" d="M442,225L442,225c2.8,0,5,2.2,5,5l0,0c0,2.8-2.2,5-5,5l0,0c-2.8,0-5-2.2-5-5l0,0C437,227.2,439.2,225,442,225z"
	/>
<path class="st0" d="M464,225h6c1.1,0,2,0.9,2,2v6c0,1.1-0.9,2-2,2h-6c-1.1,0-2-0.9-2-2v-6C462,225.9,462.9,225,464,225z"/>
<path class="st0" d="M492,225L492,225c2.8,0,5,2.2,5,5l0,0c0,2.8-2.2,5-5,5l0,0c-2.8,0-5-2.2-5-5l0,0C487,227.2,489.2,225,492,225z"
	/>
<path class="st0" d="M514,225h6c1.1,0,2,0.9,2,2v6c0,1.1-0.9,2-2,2h-6c-1.1,0-2-0.9-2-2v-6C512,225.9,512.9,225,514,225z"/>
<path class="st0" d="M542,225L542,225c2.8,0,5,2.2,5,5l0,0c0,2.8-2.2,5-5,5l0,0c-2.8,0-5-2.2-5-5l0,0C537,227.2,539.2,225,542,225z"
	/>
<path class="st0" d="M564,225h6c1.1,0,2,0.9,2,2v6c0,1.1-0.9,2-2,2h-6c-1.1,0-2-0.9-2-2v-6C562,225.9,562.9,225,564,225z"/>
<path class="st0" d="M592,225L592,225c2.8,0,5,2.2,5,5l0,0c0,2.8-2.2,5-5,5l0,0c-2.8,0-5-2.2-5-5l0,0C587,227.2,589.2,225,592,225z"
	/>
<path class="st0" d="M614,225h6c1.1,0,2,0.9,2,2v6c0,1.1-0.9,2-2,2h-6c-1.1,0-2-0.9-2-2v-6C612,225.9,612.9,225,614,225z"/>
<path class="st0" d="M642,225L642,225c2.8,0,5,2.2,5,5l0,0c0,2.8-2.2,5-5,5l0,0c-2.8,0-5-2.2-5-5l0,0C637,227.2,639.2,225,642,225z"
	/>
<path class="st0" d="M664,225h6c1.1,0,2,0.9,2,2v6c0,1.1-0.9,2-2,2h-6c-1.1,0-2-0.9-2-2v-6C662,225.9,662.9,225,664,225z"/>
<path class="st0" d="M692,225L692,225c2.8,0,5,2.2,5,5l0,0c0,2.8-2.2,5-5,5l0,0c-2.8,0-5-2.2-5-5l0,0C687,227.2,689.2,225,692,225z"
	/>
<path class="st0" d="M714,225h6c1.1,0,2,0.9,2,2v6c0,1.1-0.9,2-2,2h-6c-1.1,0-2-0.9-2-2v-6C712,225.9,712.9,225,714,225z"/>
<path class="st0" d="M742,225L742,225c2.8,0,5,2.2,5,5l0,0c0,2.8-2.2,5-5,5l0,0c-2.8,0-5-2.2-5-5l0,0C737,227.2,739.2,225,742,225z"
	/>
<path class="st0" d="M764,225h6c1.1,0,2,0.9,2,2v6c0,1.1-0.9,2-2,2h-6c-1.1,0-2-0.9-2-2v-6C762,225.9,762.9,225,764,225z"/>
<path class="st0" d="M792,225L792,225c2.8,0,5,2.2,5,5l0,0c0,2.8-2.2,5-5,5l0,0c-2.8,0-5-2.2-5-5l0,0C787,227.2,789.2,225,792,225z"
	/>
<path class="st0" d="M814,225h6c1.1,0,2,0.9,2,2v6c0,1.1-0.9,2-2,2h-6c-1.1,0-2-0.9-2-2v-6C812,225.9,812.9,225,814,225z"/>
<path class="st0" d="M842,225L842,225c2.8,0,5,2.2,5,5l0,0c0,2.8-2.2,5-5,5l0,0c-2.8,0-5-2.2-5-5l0,0C837,227.2,839.2,225,842,225z"
	/>
<path class="st0" d="M864,225h6c1.1,0,2,0.9,2,2v6c0,1.1-0.9,2-2,2h-6c-1.1,0-2-0.9-2-2v-6C862,225.9,862.9,225,864,225z"/>
<path class="st0" d="M892,225L892,225c2.8,0,5,2.2,5,5l0,0c0,2.8-2.2,5-5,5l0,0c-2.8,0-5-2.2-5-5l0,0C887,227.2,889.2,225,892,225z"
	/>
<path class="st0" d="M914,225h6c1.1,0,2,0.9,2,2v6c0,1.1-0.9,2-2,2h-6c-1.1,0-2-0.9-2-2v-6C912,225.9,912.9,225,914,225z"/>
<path class="st0" d="M942,225L942,225c2.8,0,5,2.2,5,5l0,0c0,2.8-2.2,5-5,5l0,0c-2.8,0-5-2.2-5-5l0,0C937,227.2,939.2,225,942,225z"
	/>
<path class="st0" d="M964,225h6c1.1,0,2,0.9,2,2v6c0,1.1-0.9,2-2,2h-6c-1.1,0-2-0.9-2-2v-6C962,225.9,962.9,225,964,225z"/>
<path class="st0" d="M992,225L992,225c2.8,0,5,2.2,5,5l0,0c0,2.8-2.2,5-5,5l0,0c-2.8,0-5-2.2-5-5l0,0C987,227.2,989.2,225,992,225z"
	/>
<path class="st0" d="M1014,225h6c1.1,0,2,0.9,2,2v6c0,1.1-0.9,2-2,2h-6c-1.1,0-2-0.9-2-2v-6C1012,225.9,1012.9,225,1014,225z"/>
<path class="st0" d="M1042,225L1042,225c2.8,0,5,2.2,5,5l0,0c0,2.8-2.2,5-5,5l0,0c-2.8,0-5-2.2-5-5l0,0
	C1037,227.2,1039.2,225,1042,225z"/>
<path class="st0" d="M2,250h6c1.1,0,2,0.9,2,2v6c0,1.1-0.9,2-2,2H2c-1.1,0-2-0.9-2-2v-6C0,250.9,0.9,250,2,250z"/>
<path class="st0" d="M30,250L30,250c2.8,0,5,2.2,5,5l0,0c0,2.8-2.2,5-5,5l0,0c-2.8,0-5-2.2-5-5l0,0C25,252.2,27.2,250,30,250z"/>
<path class="st0" d="M52,250h6c1.1,0,2,0.9,2,2v6c0,1.1-0.9,2-2,2h-6c-1.1,0-2-0.9-2-2v-6C50,250.9,50.9,250,52,250z"/>
<path class="st0" d="M80,250L80,250c2.8,0,5,2.2,5,5l0,0c0,2.8-2.2,5-5,5l0,0c-2.8,0-5-2.2-5-5l0,0C75,252.2,77.2,250,80,250z"/>
<path class="st0" d="M102,250h6c1.1,0,2,0.9,2,2v6c0,1.1-0.9,2-2,2h-6c-1.1,0-2-0.9-2-2v-6C100,250.9,100.9,250,102,250z"/>
<path class="st0" d="M130,250L130,250c2.8,0,5,2.2,5,5l0,0c0,2.8-2.2,5-5,5l0,0c-2.8,0-5-2.2-5-5l0,0C125,252.2,127.2,250,130,250z"
	/>
<path class="st0" d="M152,250h6c1.1,0,2,0.9,2,2v6c0,1.1-0.9,2-2,2h-6c-1.1,0-2-0.9-2-2v-6C150,250.9,150.9,250,152,250z"/>
<path class="st0" d="M180,250L180,250c2.8,0,5,2.2,5,5l0,0c0,2.8-2.2,5-5,5l0,0c-2.8,0-5-2.2-5-5l0,0C175,252.2,177.2,250,180,250z"
	/>
<path class="st0" d="M202,250h6c1.1,0,2,0.9,2,2v6c0,1.1-0.9,2-2,2h-6c-1.1,0-2-0.9-2-2v-6C200,250.9,200.9,250,202,250z"/>
<path class="st0" d="M230,250L230,250c2.8,0,5,2.2,5,5l0,0c0,2.8-2.2,5-5,5l0,0c-2.8,0-5-2.2-5-5l0,0C225,252.2,227.2,250,230,250z"
	/>
<path class="st0" d="M252,250h6c1.1,0,2,0.9,2,2v6c0,1.1-0.9,2-2,2h-6c-1.1,0-2-0.9-2-2v-6C250,250.9,250.9,250,252,250z"/>
<path class="st0" d="M280,250L280,250c2.8,0,5,2.2,5,5l0,0c0,2.8-2.2,5-5,5l0,0c-2.8,0-5-2.2-5-5l0,0C275,252.2,277.2,250,280,250z"
	/>
<path class="st0" d="M302,250h6c1.1,0,2,0.9,2,2v6c0,1.1-0.9,2-2,2h-6c-1.1,0-2-0.9-2-2v-6C300,250.9,300.9,250,302,250z"/>
<path class="st0" d="M330,250L330,250c2.8,0,5,2.2,5,5l0,0c0,2.8-2.2,5-5,5l0,0c-2.8,0-5-2.2-5-5l0,0C325,252.2,327.2,250,330,250z"
	/>
<path class="st0" d="M352,250h6c1.1,0,2,0.9,2,2v6c0,1.1-0.9,2-2,2h-6c-1.1,0-2-0.9-2-2v-6C350,250.9,350.9,250,352,250z"/>
<path class="st0" d="M380,250L380,250c2.8,0,5,2.2,5,5l0,0c0,2.8-2.2,5-5,5l0,0c-2.8,0-5-2.2-5-5l0,0C375,252.2,377.2,250,380,250z"
	/>
<path class="st0" d="M402,250h6c1.1,0,2,0.9,2,2v6c0,1.1-0.9,2-2,2h-6c-1.1,0-2-0.9-2-2v-6C400,250.9,400.9,250,402,250z"/>
<path class="st0" d="M430,250L430,250c2.8,0,5,2.2,5,5l0,0c0,2.8-2.2,5-5,5l0,0c-2.8,0-5-2.2-5-5l0,0C425,252.2,427.2,250,430,250z"
	/>
<path class="st0" d="M452,250h6c1.1,0,2,0.9,2,2v6c0,1.1-0.9,2-2,2h-6c-1.1,0-2-0.9-2-2v-6C450,250.9,450.9,250,452,250z"/>
<path class="st0" d="M480,250L480,250c2.8,0,5,2.2,5,5l0,0c0,2.8-2.2,5-5,5l0,0c-2.8,0-5-2.2-5-5l0,0C475,252.2,477.2,250,480,250z"
	/>
<path class="st0" d="M502,250h6c1.1,0,2,0.9,2,2v6c0,1.1-0.9,2-2,2h-6c-1.1,0-2-0.9-2-2v-6C500,250.9,500.9,250,502,250z"/>
<path class="st0" d="M530,250L530,250c2.8,0,5,2.2,5,5l0,0c0,2.8-2.2,5-5,5l0,0c-2.8,0-5-2.2-5-5l0,0C525,252.2,527.2,250,530,250z"
	/>
<path class="st0" d="M552,250h6c1.1,0,2,0.9,2,2v6c0,1.1-0.9,2-2,2h-6c-1.1,0-2-0.9-2-2v-6C550,250.9,550.9,250,552,250z"/>
<path class="st0" d="M580,250L580,250c2.8,0,5,2.2,5,5l0,0c0,2.8-2.2,5-5,5l0,0c-2.8,0-5-2.2-5-5l0,0C575,252.2,577.2,250,580,250z"
	/>
<path class="st0" d="M602,250h6c1.1,0,2,0.9,2,2v6c0,1.1-0.9,2-2,2h-6c-1.1,0-2-0.9-2-2v-6C600,250.9,600.9,250,602,250z"/>
<path class="st0" d="M630,250L630,250c2.8,0,5,2.2,5,5l0,0c0,2.8-2.2,5-5,5l0,0c-2.8,0-5-2.2-5-5l0,0C625,252.2,627.2,250,630,250z"
	/>
<path class="st0" d="M652,250h6c1.1,0,2,0.9,2,2v6c0,1.1-0.9,2-2,2h-6c-1.1,0-2-0.9-2-2v-6C650,250.9,650.9,250,652,250z"/>
<path class="st0" d="M680,250L680,250c2.8,0,5,2.2,5,5l0,0c0,2.8-2.2,5-5,5l0,0c-2.8,0-5-2.2-5-5l0,0C675,252.2,677.2,250,680,250z"
	/>
<path class="st0" d="M702,250h6c1.1,0,2,0.9,2,2v6c0,1.1-0.9,2-2,2h-6c-1.1,0-2-0.9-2-2v-6C700,250.9,700.9,250,702,250z"/>
<path class="st0" d="M730,250L730,250c2.8,0,5,2.2,5,5l0,0c0,2.8-2.2,5-5,5l0,0c-2.8,0-5-2.2-5-5l0,0C725,252.2,727.2,250,730,250z"
	/>
<path class="st0" d="M752,250h6c1.1,0,2,0.9,2,2v6c0,1.1-0.9,2-2,2h-6c-1.1,0-2-0.9-2-2v-6C750,250.9,750.9,250,752,250z"/>
<path class="st0" d="M780,250L780,250c2.8,0,5,2.2,5,5l0,0c0,2.8-2.2,5-5,5l0,0c-2.8,0-5-2.2-5-5l0,0C775,252.2,777.2,250,780,250z"
	/>
<path class="st0" d="M802,250h6c1.1,0,2,0.9,2,2v6c0,1.1-0.9,2-2,2h-6c-1.1,0-2-0.9-2-2v-6C800,250.9,800.9,250,802,250z"/>
<path class="st0" d="M830,250L830,250c2.8,0,5,2.2,5,5l0,0c0,2.8-2.2,5-5,5l0,0c-2.8,0-5-2.2-5-5l0,0C825,252.2,827.2,250,830,250z"
	/>
<path class="st0" d="M852,250h6c1.1,0,2,0.9,2,2v6c0,1.1-0.9,2-2,2h-6c-1.1,0-2-0.9-2-2v-6C850,250.9,850.9,250,852,250z"/>
<path class="st0" d="M880,250L880,250c2.8,0,5,2.2,5,5l0,0c0,2.8-2.2,5-5,5l0,0c-2.8,0-5-2.2-5-5l0,0C875,252.2,877.2,250,880,250z"
	/>
<path class="st0" d="M902,250h6c1.1,0,2,0.9,2,2v6c0,1.1-0.9,2-2,2h-6c-1.1,0-2-0.9-2-2v-6C900,250.9,900.9,250,902,250z"/>
<path class="st0" d="M930,250L930,250c2.8,0,5,2.2,5,5l0,0c0,2.8-2.2,5-5,5l0,0c-2.8,0-5-2.2-5-5l0,0C925,252.2,927.2,250,930,250z"
	/>
<path class="st0" d="M952,250h6c1.1,0,2,0.9,2,2v6c0,1.1-0.9,2-2,2h-6c-1.1,0-2-0.9-2-2v-6C950,250.9,950.9,250,952,250z"/>
<path class="st0" d="M980,250L980,250c2.8,0,5,2.2,5,5l0,0c0,2.8-2.2,5-5,5l0,0c-2.8,0-5-2.2-5-5l0,0C975,252.2,977.2,250,980,250z"
	/>
<path class="st0" d="M1002,250h6c1.1,0,2,0.9,2,2v6c0,1.1-0.9,2-2,2h-6c-1.1,0-2-0.9-2-2v-6C1000,250.9,1000.9,250,1002,250z"/>
<path class="st0" d="M1030,250L1030,250c2.8,0,5,2.2,5,5l0,0c0,2.8-2.2,5-5,5l0,0c-2.8,0-5-2.2-5-5l0,0
	C1025,252.2,1027.2,250,1030,250z"/>
<path class="st0" d="M1052,250h6c1.1,0,2,0.9,2,2v6c0,1.1-0.9,2-2,2h-6c-1.1,0-2-0.9-2-2v-6C1050,250.9,1050.9,250,1052,250z"/>
<path class="st0" d="M14,275h6c1.1,0,2,0.9,2,2v6c0,1.1-0.9,2-2,2h-6c-1.1,0-2-0.9-2-2v-6C12,275.9,12.9,275,14,275z"/>
<path class="st0" d="M42,275L42,275c2.8,0,5,2.2,5,5l0,0c0,2.8-2.2,5-5,5l0,0c-2.8,0-5-2.2-5-5l0,0C37,277.2,39.2,275,42,275z"/>
<path class="st0" d="M64,275h6c1.1,0,2,0.9,2,2v6c0,1.1-0.9,2-2,2h-6c-1.1,0-2-0.9-2-2v-6C62,275.9,62.9,275,64,275z"/>
<path class="st0" d="M92,275L92,275c2.8,0,5,2.2,5,5l0,0c0,2.8-2.2,5-5,5l0,0c-2.8,0-5-2.2-5-5l0,0C87,277.2,89.2,275,92,275z"/>
<path class="st0" d="M114,275h6c1.1,0,2,0.9,2,2v6c0,1.1-0.9,2-2,2h-6c-1.1,0-2-0.9-2-2v-6C112,275.9,112.9,275,114,275z"/>
<path class="st0" d="M142,275L142,275c2.8,0,5,2.2,5,5l0,0c0,2.8-2.2,5-5,5l0,0c-2.8,0-5-2.2-5-5l0,0C137,277.2,139.2,275,142,275z"
	/>
<path class="st0" d="M164,275h6c1.1,0,2,0.9,2,2v6c0,1.1-0.9,2-2,2h-6c-1.1,0-2-0.9-2-2v-6C162,275.9,162.9,275,164,275z"/>
<path class="st0" d="M192,275L192,275c2.8,0,5,2.2,5,5l0,0c0,2.8-2.2,5-5,5l0,0c-2.8,0-5-2.2-5-5l0,0C187,277.2,189.2,275,192,275z"
	/>
<path class="st0" d="M214,275h6c1.1,0,2,0.9,2,2v6c0,1.1-0.9,2-2,2h-6c-1.1,0-2-0.9-2-2v-6C212,275.9,212.9,275,214,275z"/>
<path class="st0" d="M242,275L242,275c2.8,0,5,2.2,5,5l0,0c0,2.8-2.2,5-5,5l0,0c-2.8,0-5-2.2-5-5l0,0C237,277.2,239.2,275,242,275z"
	/>
<path class="st0" d="M264,275h6c1.1,0,2,0.9,2,2v6c0,1.1-0.9,2-2,2h-6c-1.1,0-2-0.9-2-2v-6C262,275.9,262.9,275,264,275z"/>
<path class="st0" d="M292,275L292,275c2.8,0,5,2.2,5,5l0,0c0,2.8-2.2,5-5,5l0,0c-2.8,0-5-2.2-5-5l0,0C287,277.2,289.2,275,292,275z"
	/>
<path class="st0" d="M314,275h6c1.1,0,2,0.9,2,2v6c0,1.1-0.9,2-2,2h-6c-1.1,0-2-0.9-2-2v-6C312,275.9,312.9,275,314,275z"/>
<path class="st0" d="M342,275L342,275c2.8,0,5,2.2,5,5l0,0c0,2.8-2.2,5-5,5l0,0c-2.8,0-5-2.2-5-5l0,0C337,277.2,339.2,275,342,275z"
	/>
<path class="st0" d="M364,275h6c1.1,0,2,0.9,2,2v6c0,1.1-0.9,2-2,2h-6c-1.1,0-2-0.9-2-2v-6C362,275.9,362.9,275,364,275z"/>
<path class="st0" d="M392,275L392,275c2.8,0,5,2.2,5,5l0,0c0,2.8-2.2,5-5,5l0,0c-2.8,0-5-2.2-5-5l0,0C387,277.2,389.2,275,392,275z"
	/>
<path class="st0" d="M414,275h6c1.1,0,2,0.9,2,2v6c0,1.1-0.9,2-2,2h-6c-1.1,0-2-0.9-2-2v-6C412,275.9,412.9,275,414,275z"/>
<path class="st0" d="M442,275L442,275c2.8,0,5,2.2,5,5l0,0c0,2.8-2.2,5-5,5l0,0c-2.8,0-5-2.2-5-5l0,0C437,277.2,439.2,275,442,275z"
	/>
<path class="st0" d="M464,275h6c1.1,0,2,0.9,2,2v6c0,1.1-0.9,2-2,2h-6c-1.1,0-2-0.9-2-2v-6C462,275.9,462.9,275,464,275z"/>
<path class="st0" d="M492,275L492,275c2.8,0,5,2.2,5,5l0,0c0,2.8-2.2,5-5,5l0,0c-2.8,0-5-2.2-5-5l0,0C487,277.2,489.2,275,492,275z"
	/>
<path class="st0" d="M514,275h6c1.1,0,2,0.9,2,2v6c0,1.1-0.9,2-2,2h-6c-1.1,0-2-0.9-2-2v-6C512,275.9,512.9,275,514,275z"/>
<path class="st0" d="M542,275L542,275c2.8,0,5,2.2,5,5l0,0c0,2.8-2.2,5-5,5l0,0c-2.8,0-5-2.2-5-5l0,0C537,277.2,539.2,275,542,275z"
	/>
<path class="st0" d="M564,275h6c1.1,0,2,0.9,2,2v6c0,1.1-0.9,2-2,2h-6c-1.1,0-2-0.9-2-2v-6C562,275.9,562.9,275,564,275z"/>
<path class="st0" d="M592,275L592,275c2.8,0,5,2.2,5,5l0,0c0,2.8-2.2,5-5,5l0,0c-2.8,0-5-2.2-5-5l0,0C587,277.2,589.2,275,592,275z"
	/>
<path class="st0" d="M614,275h6c1.1,0,2,0.9,2,2v6c0,1.1-0.9,2-2,2h-6c-1.1,0-2-0.9-2-2v-6C612,275.9,612.9,275,614,275z"/>
<path class="st0" d="M642,275L642,275c2.8,0,5,2.2,5,5l0,0c0,2.8-2.2,5-5,5l0,0c-2.8,0-5-2.2-5-5l0,0C637,277.2,639.2,275,642,275z"
	/>
<path class="st0" d="M664,275h6c1.1,0,2,0.9,2,2v6c0,1.1-0.9,2-2,2h-6c-1.1,0-2-0.9-2-2v-6C662,275.9,662.9,275,664,275z"/>
<path class="st0" d="M692,275L692,275c2.8,0,5,2.2,5,5l0,0c0,2.8-2.2,5-5,5l0,0c-2.8,0-5-2.2-5-5l0,0C687,277.2,689.2,275,692,275z"
	/>
<path class="st0" d="M714,275h6c1.1,0,2,0.9,2,2v6c0,1.1-0.9,2-2,2h-6c-1.1,0-2-0.9-2-2v-6C712,275.9,712.9,275,714,275z"/>
<path class="st0" d="M742,275L742,275c2.8,0,5,2.2,5,5l0,0c0,2.8-2.2,5-5,5l0,0c-2.8,0-5-2.2-5-5l0,0C737,277.2,739.2,275,742,275z"
	/>
<path class="st0" d="M764,275h6c1.1,0,2,0.9,2,2v6c0,1.1-0.9,2-2,2h-6c-1.1,0-2-0.9-2-2v-6C762,275.9,762.9,275,764,275z"/>
<path class="st0" d="M792,275L792,275c2.8,0,5,2.2,5,5l0,0c0,2.8-2.2,5-5,5l0,0c-2.8,0-5-2.2-5-5l0,0C787,277.2,789.2,275,792,275z"
	/>
<path class="st0" d="M814,275h6c1.1,0,2,0.9,2,2v6c0,1.1-0.9,2-2,2h-6c-1.1,0-2-0.9-2-2v-6C812,275.9,812.9,275,814,275z"/>
<path class="st0" d="M842,275L842,275c2.8,0,5,2.2,5,5l0,0c0,2.8-2.2,5-5,5l0,0c-2.8,0-5-2.2-5-5l0,0C837,277.2,839.2,275,842,275z"
	/>
<path class="st0" d="M864,275h6c1.1,0,2,0.9,2,2v6c0,1.1-0.9,2-2,2h-6c-1.1,0-2-0.9-2-2v-6C862,275.9,862.9,275,864,275z"/>
<path class="st0" d="M892,275L892,275c2.8,0,5,2.2,5,5l0,0c0,2.8-2.2,5-5,5l0,0c-2.8,0-5-2.2-5-5l0,0C887,277.2,889.2,275,892,275z"
	/>
<path class="st0" d="M914,275h6c1.1,0,2,0.9,2,2v6c0,1.1-0.9,2-2,2h-6c-1.1,0-2-0.9-2-2v-6C912,275.9,912.9,275,914,275z"/>
<path class="st0" d="M942,275L942,275c2.8,0,5,2.2,5,5l0,0c0,2.8-2.2,5-5,5l0,0c-2.8,0-5-2.2-5-5l0,0C937,277.2,939.2,275,942,275z"
	/>
<path class="st0" d="M964,275h6c1.1,0,2,0.9,2,2v6c0,1.1-0.9,2-2,2h-6c-1.1,0-2-0.9-2-2v-6C962,275.9,962.9,275,964,275z"/>
<path class="st0" d="M992,275L992,275c2.8,0,5,2.2,5,5l0,0c0,2.8-2.2,5-5,5l0,0c-2.8,0-5-2.2-5-5l0,0C987,277.2,989.2,275,992,275z"
	/>
<path class="st0" d="M1014,275h6c1.1,0,2,0.9,2,2v6c0,1.1-0.9,2-2,2h-6c-1.1,0-2-0.9-2-2v-6C1012,275.9,1012.9,275,1014,275z"/>
<path class="st0" d="M1042,275L1042,275c2.8,0,5,2.2,5,5l0,0c0,2.8-2.2,5-5,5l0,0c-2.8,0-5-2.2-5-5l0,0
	C1037,277.2,1039.2,275,1042,275z"/>
<path class="st0" d="M2,300h6c1.1,0,2,0.9,2,2v6c0,1.1-0.9,2-2,2H2c-1.1,0-2-0.9-2-2v-6C0,300.9,0.9,300,2,300z"/>
<path class="st0" d="M30,300L30,300c2.8,0,5,2.2,5,5l0,0c0,2.8-2.2,5-5,5l0,0c-2.8,0-5-2.2-5-5l0,0C25,302.2,27.2,300,30,300z"/>
<path class="st0" d="M52,300h6c1.1,0,2,0.9,2,2v6c0,1.1-0.9,2-2,2h-6c-1.1,0-2-0.9-2-2v-6C50,300.9,50.9,300,52,300z"/>
<path class="st0" d="M80,300L80,300c2.8,0,5,2.2,5,5l0,0c0,2.8-2.2,5-5,5l0,0c-2.8,0-5-2.2-5-5l0,0C75,302.2,77.2,300,80,300z"/>
<path class="st0" d="M102,300h6c1.1,0,2,0.9,2,2v6c0,1.1-0.9,2-2,2h-6c-1.1,0-2-0.9-2-2v-6C100,300.9,100.9,300,102,300z"/>
<path class="st0" d="M130,300L130,300c2.8,0,5,2.2,5,5l0,0c0,2.8-2.2,5-5,5l0,0c-2.8,0-5-2.2-5-5l0,0C125,302.2,127.2,300,130,300z"
	/>
<path class="st0" d="M152,300h6c1.1,0,2,0.9,2,2v6c0,1.1-0.9,2-2,2h-6c-1.1,0-2-0.9-2-2v-6C150,300.9,150.9,300,152,300z"/>
<path class="st0" d="M180,300L180,300c2.8,0,5,2.2,5,5l0,0c0,2.8-2.2,5-5,5l0,0c-2.8,0-5-2.2-5-5l0,0C175,302.2,177.2,300,180,300z"
	/>
<path class="st0" d="M202,300h6c1.1,0,2,0.9,2,2v6c0,1.1-0.9,2-2,2h-6c-1.1,0-2-0.9-2-2v-6C200,300.9,200.9,300,202,300z"/>
<path class="st0" d="M230,300L230,300c2.8,0,5,2.2,5,5l0,0c0,2.8-2.2,5-5,5l0,0c-2.8,0-5-2.2-5-5l0,0C225,302.2,227.2,300,230,300z"
	/>
<path class="st0" d="M252,300h6c1.1,0,2,0.9,2,2v6c0,1.1-0.9,2-2,2h-6c-1.1,0-2-0.9-2-2v-6C250,300.9,250.9,300,252,300z"/>
<path class="st0" d="M280,300L280,300c2.8,0,5,2.2,5,5l0,0c0,2.8-2.2,5-5,5l0,0c-2.8,0-5-2.2-5-5l0,0C275,302.2,277.2,300,280,300z"
	/>
<path class="st0" d="M302,300h6c1.1,0,2,0.9,2,2v6c0,1.1-0.9,2-2,2h-6c-1.1,0-2-0.9-2-2v-6C300,300.9,300.9,300,302,300z"/>
<path class="st0" d="M330,300L330,300c2.8,0,5,2.2,5,5l0,0c0,2.8-2.2,5-5,5l0,0c-2.8,0-5-2.2-5-5l0,0C325,302.2,327.2,300,330,300z"
	/>
<path class="st0" d="M352,300h6c1.1,0,2,0.9,2,2v6c0,1.1-0.9,2-2,2h-6c-1.1,0-2-0.9-2-2v-6C350,300.9,350.9,300,352,300z"/>
<path class="st0" d="M380,300L380,300c2.8,0,5,2.2,5,5l0,0c0,2.8-2.2,5-5,5l0,0c-2.8,0-5-2.2-5-5l0,0C375,302.2,377.2,300,380,300z"
	/>
<path class="st0" d="M402,300h6c1.1,0,2,0.9,2,2v6c0,1.1-0.9,2-2,2h-6c-1.1,0-2-0.9-2-2v-6C400,300.9,400.9,300,402,300z"/>
<path class="st0" d="M430,300L430,300c2.8,0,5,2.2,5,5l0,0c0,2.8-2.2,5-5,5l0,0c-2.8,0-5-2.2-5-5l0,0C425,302.2,427.2,300,430,300z"
	/>
<path class="st0" d="M452,300h6c1.1,0,2,0.9,2,2v6c0,1.1-0.9,2-2,2h-6c-1.1,0-2-0.9-2-2v-6C450,300.9,450.9,300,452,300z"/>
<path class="st0" d="M480,300L480,300c2.8,0,5,2.2,5,5l0,0c0,2.8-2.2,5-5,5l0,0c-2.8,0-5-2.2-5-5l0,0C475,302.2,477.2,300,480,300z"
	/>
<path class="st0" d="M502,300h6c1.1,0,2,0.9,2,2v6c0,1.1-0.9,2-2,2h-6c-1.1,0-2-0.9-2-2v-6C500,300.9,500.9,300,502,300z"/>
<path class="st0" d="M530,300L530,300c2.8,0,5,2.2,5,5l0,0c0,2.8-2.2,5-5,5l0,0c-2.8,0-5-2.2-5-5l0,0C525,302.2,527.2,300,530,300z"
	/>
<path class="st0" d="M552,300h6c1.1,0,2,0.9,2,2v6c0,1.1-0.9,2-2,2h-6c-1.1,0-2-0.9-2-2v-6C550,300.9,550.9,300,552,300z"/>
<path class="st0" d="M580,300L580,300c2.8,0,5,2.2,5,5l0,0c0,2.8-2.2,5-5,5l0,0c-2.8,0-5-2.2-5-5l0,0C575,302.2,577.2,300,580,300z"
	/>
<path class="st0" d="M602,300h6c1.1,0,2,0.9,2,2v6c0,1.1-0.9,2-2,2h-6c-1.1,0-2-0.9-2-2v-6C600,300.9,600.9,300,602,300z"/>
<path class="st0" d="M630,300L630,300c2.8,0,5,2.2,5,5l0,0c0,2.8-2.2,5-5,5l0,0c-2.8,0-5-2.2-5-5l0,0C625,302.2,627.2,300,630,300z"
	/>
<path class="st0" d="M652,300h6c1.1,0,2,0.9,2,2v6c0,1.1-0.9,2-2,2h-6c-1.1,0-2-0.9-2-2v-6C650,300.9,650.9,300,652,300z"/>
<path class="st0" d="M680,300L680,300c2.8,0,5,2.2,5,5l0,0c0,2.8-2.2,5-5,5l0,0c-2.8,0-5-2.2-5-5l0,0C675,302.2,677.2,300,680,300z"
	/>
<path class="st0" d="M702,300h6c1.1,0,2,0.9,2,2v6c0,1.1-0.9,2-2,2h-6c-1.1,0-2-0.9-2-2v-6C700,300.9,700.9,300,702,300z"/>
<path class="st0" d="M730,300L730,300c2.8,0,5,2.2,5,5l0,0c0,2.8-2.2,5-5,5l0,0c-2.8,0-5-2.2-5-5l0,0C725,302.2,727.2,300,730,300z"
	/>
<path class="st0" d="M752,300h6c1.1,0,2,0.9,2,2v6c0,1.1-0.9,2-2,2h-6c-1.1,0-2-0.9-2-2v-6C750,300.9,750.9,300,752,300z"/>
<path class="st0" d="M780,300L780,300c2.8,0,5,2.2,5,5l0,0c0,2.8-2.2,5-5,5l0,0c-2.8,0-5-2.2-5-5l0,0C775,302.2,777.2,300,780,300z"
	/>
<path class="st0" d="M802,300h6c1.1,0,2,0.9,2,2v6c0,1.1-0.9,2-2,2h-6c-1.1,0-2-0.9-2-2v-6C800,300.9,800.9,300,802,300z"/>
<path class="st0" d="M830,300L830,300c2.8,0,5,2.2,5,5l0,0c0,2.8-2.2,5-5,5l0,0c-2.8,0-5-2.2-5-5l0,0C825,302.2,827.2,300,830,300z"
	/>
<path class="st0" d="M852,300h6c1.1,0,2,0.9,2,2v6c0,1.1-0.9,2-2,2h-6c-1.1,0-2-0.9-2-2v-6C850,300.9,850.9,300,852,300z"/>
<path class="st0" d="M880,300L880,300c2.8,0,5,2.2,5,5l0,0c0,2.8-2.2,5-5,5l0,0c-2.8,0-5-2.2-5-5l0,0C875,302.2,877.2,300,880,300z"
	/>
<path class="st0" d="M902,300h6c1.1,0,2,0.9,2,2v6c0,1.1-0.9,2-2,2h-6c-1.1,0-2-0.9-2-2v-6C900,300.9,900.9,300,902,300z"/>
<path class="st0" d="M930,300L930,300c2.8,0,5,2.2,5,5l0,0c0,2.8-2.2,5-5,5l0,0c-2.8,0-5-2.2-5-5l0,0C925,302.2,927.2,300,930,300z"
	/>
<path class="st0" d="M952,300h6c1.1,0,2,0.9,2,2v6c0,1.1-0.9,2-2,2h-6c-1.1,0-2-0.9-2-2v-6C950,300.9,950.9,300,952,300z"/>
<path class="st0" d="M980,300L980,300c2.8,0,5,2.2,5,5l0,0c0,2.8-2.2,5-5,5l0,0c-2.8,0-5-2.2-5-5l0,0C975,302.2,977.2,300,980,300z"
	/>
<path class="st0" d="M1002,300h6c1.1,0,2,0.9,2,2v6c0,1.1-0.9,2-2,2h-6c-1.1,0-2-0.9-2-2v-6C1000,300.9,1000.9,300,1002,300z"/>
<path class="st0" d="M1030,300L1030,300c2.8,0,5,2.2,5,5l0,0c0,2.8-2.2,5-5,5l0,0c-2.8,0-5-2.2-5-5l0,0
	C1025,302.2,1027.2,300,1030,300z"/>
<path class="st0" d="M1052,300h6c1.1,0,2,0.9,2,2v6c0,1.1-0.9,2-2,2h-6c-1.1,0-2-0.9-2-2v-6C1050,300.9,1050.9,300,1052,300z"/>
<path class="st0" d="M14,325h6c1.1,0,2,0.9,2,2v6c0,1.1-0.9,2-2,2h-6c-1.1,0-2-0.9-2-2v-6C12,325.9,12.9,325,14,325z"/>
<path class="st0" d="M42,325L42,325c2.8,0,5,2.2,5,5l0,0c0,2.8-2.2,5-5,5l0,0c-2.8,0-5-2.2-5-5l0,0C37,327.2,39.2,325,42,325z"/>
<path class="st0" d="M64,325h6c1.1,0,2,0.9,2,2v6c0,1.1-0.9,2-2,2h-6c-1.1,0-2-0.9-2-2v-6C62,325.9,62.9,325,64,325z"/>
<path class="st0" d="M92,325L92,325c2.8,0,5,2.2,5,5l0,0c0,2.8-2.2,5-5,5l0,0c-2.8,0-5-2.2-5-5l0,0C87,327.2,89.2,325,92,325z"/>
<path class="st0" d="M114,325h6c1.1,0,2,0.9,2,2v6c0,1.1-0.9,2-2,2h-6c-1.1,0-2-0.9-2-2v-6C112,325.9,112.9,325,114,325z"/>
<path class="st0" d="M142,325L142,325c2.8,0,5,2.2,5,5l0,0c0,2.8-2.2,5-5,5l0,0c-2.8,0-5-2.2-5-5l0,0C137,327.2,139.2,325,142,325z"
	/>
<path class="st0" d="M164,325h6c1.1,0,2,0.9,2,2v6c0,1.1-0.9,2-2,2h-6c-1.1,0-2-0.9-2-2v-6C162,325.9,162.9,325,164,325z"/>
<path class="st0" d="M192,325L192,325c2.8,0,5,2.2,5,5l0,0c0,2.8-2.2,5-5,5l0,0c-2.8,0-5-2.2-5-5l0,0C187,327.2,189.2,325,192,325z"
	/>
<path class="st0" d="M214,325h6c1.1,0,2,0.9,2,2v6c0,1.1-0.9,2-2,2h-6c-1.1,0-2-0.9-2-2v-6C212,325.9,212.9,325,214,325z"/>
<path class="st0" d="M242,325L242,325c2.8,0,5,2.2,5,5l0,0c0,2.8-2.2,5-5,5l0,0c-2.8,0-5-2.2-5-5l0,0C237,327.2,239.2,325,242,325z"
	/>
<path class="st0" d="M264,325h6c1.1,0,2,0.9,2,2v6c0,1.1-0.9,2-2,2h-6c-1.1,0-2-0.9-2-2v-6C262,325.9,262.9,325,264,325z"/>
<path class="st0" d="M292,325L292,325c2.8,0,5,2.2,5,5l0,0c0,2.8-2.2,5-5,5l0,0c-2.8,0-5-2.2-5-5l0,0C287,327.2,289.2,325,292,325z"
	/>
<path class="st0" d="M314,325h6c1.1,0,2,0.9,2,2v6c0,1.1-0.9,2-2,2h-6c-1.1,0-2-0.9-2-2v-6C312,325.9,312.9,325,314,325z"/>
<path class="st0" d="M342,325L342,325c2.8,0,5,2.2,5,5l0,0c0,2.8-2.2,5-5,5l0,0c-2.8,0-5-2.2-5-5l0,0C337,327.2,339.2,325,342,325z"
	/>
<path class="st0" d="M364,325h6c1.1,0,2,0.9,2,2v6c0,1.1-0.9,2-2,2h-6c-1.1,0-2-0.9-2-2v-6C362,325.9,362.9,325,364,325z"/>
<path class="st0" d="M392,325L392,325c2.8,0,5,2.2,5,5l0,0c0,2.8-2.2,5-5,5l0,0c-2.8,0-5-2.2-5-5l0,0C387,327.2,389.2,325,392,325z"
	/>
<path class="st0" d="M414,325h6c1.1,0,2,0.9,2,2v6c0,1.1-0.9,2-2,2h-6c-1.1,0-2-0.9-2-2v-6C412,325.9,412.9,325,414,325z"/>
<path class="st0" d="M442,325L442,325c2.8,0,5,2.2,5,5l0,0c0,2.8-2.2,5-5,5l0,0c-2.8,0-5-2.2-5-5l0,0C437,327.2,439.2,325,442,325z"
	/>
<path class="st0" d="M464,325h6c1.1,0,2,0.9,2,2v6c0,1.1-0.9,2-2,2h-6c-1.1,0-2-0.9-2-2v-6C462,325.9,462.9,325,464,325z"/>
<path class="st0" d="M492,325L492,325c2.8,0,5,2.2,5,5l0,0c0,2.8-2.2,5-5,5l0,0c-2.8,0-5-2.2-5-5l0,0C487,327.2,489.2,325,492,325z"
	/>
<path class="st0" d="M514,325h6c1.1,0,2,0.9,2,2v6c0,1.1-0.9,2-2,2h-6c-1.1,0-2-0.9-2-2v-6C512,325.9,512.9,325,514,325z"/>
<path class="st0" d="M542,325L542,325c2.8,0,5,2.2,5,5l0,0c0,2.8-2.2,5-5,5l0,0c-2.8,0-5-2.2-5-5l0,0C537,327.2,539.2,325,542,325z"
	/>
<path class="st0" d="M564,325h6c1.1,0,2,0.9,2,2v6c0,1.1-0.9,2-2,2h-6c-1.1,0-2-0.9-2-2v-6C562,325.9,562.9,325,564,325z"/>
<path class="st0" d="M592,325L592,325c2.8,0,5,2.2,5,5l0,0c0,2.8-2.2,5-5,5l0,0c-2.8,0-5-2.2-5-5l0,0C587,327.2,589.2,325,592,325z"
	/>
<path class="st0" d="M614,325h6c1.1,0,2,0.9,2,2v6c0,1.1-0.9,2-2,2h-6c-1.1,0-2-0.9-2-2v-6C612,325.9,612.9,325,614,325z"/>
<path class="st0" d="M642,325L642,325c2.8,0,5,2.2,5,5l0,0c0,2.8-2.2,5-5,5l0,0c-2.8,0-5-2.2-5-5l0,0C637,327.2,639.2,325,642,325z"
	/>
<path class="st0" d="M664,325h6c1.1,0,2,0.9,2,2v6c0,1.1-0.9,2-2,2h-6c-1.1,0-2-0.9-2-2v-6C662,325.9,662.9,325,664,325z"/>
<path class="st0" d="M692,325L692,325c2.8,0,5,2.2,5,5l0,0c0,2.8-2.2,5-5,5l0,0c-2.8,0-5-2.2-5-5l0,0C687,327.2,689.2,325,692,325z"
	/>
<path class="st0" d="M714,325h6c1.1,0,2,0.9,2,2v6c0,1.1-0.9,2-2,2h-6c-1.1,0-2-0.9-2-2v-6C712,325.9,712.9,325,714,325z"/>
<path class="st0" d="M742,325L742,325c2.8,0,5,2.2,5,5l0,0c0,2.8-2.2,5-5,5l0,0c-2.8,0-5-2.2-5-5l0,0C737,327.2,739.2,325,742,325z"
	/>
<path class="st0" d="M764,325h6c1.1,0,2,0.9,2,2v6c0,1.1-0.9,2-2,2h-6c-1.1,0-2-0.9-2-2v-6C762,325.9,762.9,325,764,325z"/>
<path class="st0" d="M792,325L792,325c2.8,0,5,2.2,5,5l0,0c0,2.8-2.2,5-5,5l0,0c-2.8,0-5-2.2-5-5l0,0C787,327.2,789.2,325,792,325z"
	/>
<path class="st0" d="M814,325h6c1.1,0,2,0.9,2,2v6c0,1.1-0.9,2-2,2h-6c-1.1,0-2-0.9-2-2v-6C812,325.9,812.9,325,814,325z"/>
<path class="st0" d="M842,325L842,325c2.8,0,5,2.2,5,5l0,0c0,2.8-2.2,5-5,5l0,0c-2.8,0-5-2.2-5-5l0,0C837,327.2,839.2,325,842,325z"
	/>
<path class="st0" d="M864,325h6c1.1,0,2,0.9,2,2v6c0,1.1-0.9,2-2,2h-6c-1.1,0-2-0.9-2-2v-6C862,325.9,862.9,325,864,325z"/>
<path class="st0" d="M892,325L892,325c2.8,0,5,2.2,5,5l0,0c0,2.8-2.2,5-5,5l0,0c-2.8,0-5-2.2-5-5l0,0C887,327.2,889.2,325,892,325z"
	/>
<path class="st0" d="M914,325h6c1.1,0,2,0.9,2,2v6c0,1.1-0.9,2-2,2h-6c-1.1,0-2-0.9-2-2v-6C912,325.9,912.9,325,914,325z"/>
<path class="st0" d="M942,325L942,325c2.8,0,5,2.2,5,5l0,0c0,2.8-2.2,5-5,5l0,0c-2.8,0-5-2.2-5-5l0,0C937,327.2,939.2,325,942,325z"
	/>
<path class="st0" d="M964,325h6c1.1,0,2,0.9,2,2v6c0,1.1-0.9,2-2,2h-6c-1.1,0-2-0.9-2-2v-6C962,325.9,962.9,325,964,325z"/>
<path class="st0" d="M992,325L992,325c2.8,0,5,2.2,5,5l0,0c0,2.8-2.2,5-5,5l0,0c-2.8,0-5-2.2-5-5l0,0C987,327.2,989.2,325,992,325z"
	/>
<path class="st0" d="M1014,325h6c1.1,0,2,0.9,2,2v6c0,1.1-0.9,2-2,2h-6c-1.1,0-2-0.9-2-2v-6C1012,325.9,1012.9,325,1014,325z"/>
<path class="st0" d="M1042,325L1042,325c2.8,0,5,2.2,5,5l0,0c0,2.8-2.2,5-5,5l0,0c-2.8,0-5-2.2-5-5l0,0
	C1037,327.2,1039.2,325,1042,325z"/>
</svg>
